<svg width="57" height="66" viewBox="0 0 57 66" fill="none" xmlns="http://www.w3.org/2000/svg">
<path d="M27.0653 30.0578C26.8585 26.4 26.1347 22.7687 24.8939 19.1639C23.1361 13.9687 22.2571 10.3904 22.2571 8.42892C22.2571 5.67229 22.8776 3.57831 24.1184 2.14699C25.4109 0.715663 26.9878 0 28.849 0C30.4517 0 31.8476 0.715663 33.0367 2.14699C34.2258 3.57831 34.8204 5.61928 34.8204 8.26988C34.8204 10.6554 34.1224 13.9952 32.7265 18.2892C31.3823 22.5301 30.5551 26.453 30.2449 30.0578C33.0884 28.2024 35.6476 25.9494 37.9224 23.2988C41.4381 19.1108 44.049 16.5133 45.7551 15.506C47.4612 14.4988 49.1932 13.9952 50.951 13.9952C52.6571 13.9952 54.0789 14.6048 55.2163 15.8241C56.4054 16.9904 57 18.3952 57 20.0386C57 22 56.1469 23.7494 54.4408 25.2867C52.7347 26.8241 48.4694 28.3614 41.6449 29.8988C37.6639 30.8 34.3551 31.8337 31.7184 33C34.4068 34.4313 37.6898 35.5181 41.5673 36.2602C47.8231 37.4265 51.9075 38.8843 53.8204 40.6337C55.785 42.3831 56.7673 44.2916 56.7673 46.359C56.7673 47.9494 56.1728 49.3277 54.9837 50.494C53.8463 51.6602 52.502 52.2434 50.951 52.2434C49.4 52.2434 47.668 51.6867 45.7551 50.5735C43.8939 49.4602 41.3605 46.9687 38.1551 43.0988C36.0354 40.5012 33.3986 38.0627 30.2449 35.7831C30.3483 38.8048 30.9429 42.0916 32.0286 45.6434C33.8898 51.8988 34.8204 56.1663 34.8204 58.4458C34.8204 60.5663 34.2 62.3687 32.9592 63.853C31.7184 65.2843 30.4 66 29.0041 66C27.0912 66 25.3592 65.2313 23.8082 63.694C22.7224 62.5807 22.1796 60.8048 22.1796 58.3663C22.1796 55.8217 22.7741 52.7735 23.9633 49.2217C25.1524 45.6169 25.902 43.1518 26.2122 41.8265C26.5224 40.4482 26.8068 38.4337 27.0653 35.7831C24.015 37.8506 21.3524 40.1566 19.0776 42.7012C15.3034 47.0482 12.4599 49.8048 10.5469 50.9711C9.20272 51.8193 7.8068 52.2434 6.35918 52.2434C4.60136 52.2434 3.10204 51.6337 1.86122 50.4145C0.620408 49.1952 0 47.8434 0 46.359C0 45.0337 0.517007 43.6554 1.55102 42.2241C2.63673 40.7398 4.23946 39.5205 6.35918 38.5663C7.7551 37.9301 10.9347 37.0819 15.898 36.0217C19.1034 35.3325 22.2313 34.3253 25.2816 33C22.4898 31.5687 19.1551 30.4554 15.2776 29.6602C8.91837 28.2819 4.98912 27.0361 3.4898 25.9229C1.16327 24.1735 0 22.053 0 19.5614C0 18.1301 0.568708 16.8313 1.70612 15.6651C2.89524 14.4458 4.26531 13.8361 5.81633 13.8361C7.52245 13.8361 9.33197 14.3928 11.2449 15.506C13.1578 16.6193 15.5361 18.8723 18.3796 22.2651C21.2231 25.6048 24.1184 28.2024 27.0653 30.0578Z" fill="#EB9A25"/>
</svg>
