<svg width="312" height="46" viewBox="0 0 312 46" fill="none" xmlns="http://www.w3.org/2000/svg">
<path d="M198.224 21.0308C198.086 18.5818 197.601 16.1505 196.77 13.737C195.593 10.2587 195.005 7.86289 195.005 6.54964C195.005 4.70401 195.42 3.30203 196.251 2.34372C197.116 1.38541 198.172 0.90625 199.418 0.90625C200.491 0.90625 201.426 1.38541 202.222 2.34372C203.018 3.30203 203.416 4.66851 203.416 6.44316C203.416 8.04035 202.949 10.2764 202.014 13.1514C201.114 15.9908 200.561 18.6173 200.353 21.0308C202.257 19.7885 203.97 18.2801 205.493 16.5054C207.847 13.7015 209.595 11.9623 210.737 11.288C211.88 10.6136 213.039 10.2764 214.216 10.2764C215.358 10.2764 216.31 10.6846 217.072 11.5009C217.868 12.2818 218.266 13.2223 218.266 14.3226C218.266 15.6359 217.695 16.8071 216.553 17.8364C215.41 18.8657 212.555 19.895 207.985 20.9243C205.32 21.5277 203.105 22.2198 201.339 23.0007C203.139 23.959 205.337 24.6866 207.934 25.1835C212.122 25.9643 214.857 26.9404 216.137 28.1117C217.453 29.2829 218.11 30.5607 218.11 31.9449C218.11 33.0097 217.712 33.9325 216.916 34.7134C216.155 35.4942 215.255 35.8846 214.216 35.8846C213.178 35.8846 212.018 35.512 210.737 34.7666C209.491 34.0213 207.795 32.3531 205.649 29.7621C204.23 28.0229 202.464 26.3903 200.353 24.8641C200.422 26.8872 200.82 29.0877 201.547 31.4658C202.793 35.6539 203.416 38.5111 203.416 40.0373C203.416 41.4571 203.001 42.6638 202.17 43.6576C201.339 44.6159 200.457 45.0951 199.522 45.0951C198.241 45.0951 197.082 44.5804 196.043 43.5511C195.316 42.8058 194.953 41.6168 194.953 39.9841C194.953 38.2804 195.351 36.2396 196.147 33.8615C196.943 31.448 197.445 29.7976 197.653 28.9103C197.861 27.9874 198.051 26.6387 198.224 24.8641C196.182 26.2483 194.399 27.7922 192.876 29.4959C190.349 32.4063 188.445 34.252 187.164 35.0328C186.265 35.6007 185.33 35.8846 184.361 35.8846C183.184 35.8846 182.18 35.4765 181.349 34.6601C180.518 33.8438 180.103 32.9387 180.103 31.9449C180.103 31.0576 180.449 30.1348 181.141 29.1765C181.868 28.1827 182.941 27.3663 184.361 26.7274C185.295 26.3015 187.424 25.7336 190.747 25.0238C192.893 24.5624 194.987 23.888 197.03 23.0007C195.161 22.0424 192.928 21.297 190.332 20.7646C186.074 19.8418 183.443 19.0077 182.44 18.2623C180.882 17.0911 180.103 15.6714 180.103 14.0032C180.103 13.0449 180.484 12.1753 181.245 11.3944C182.041 10.5781 182.959 10.1699 183.997 10.1699C185.14 10.1699 186.351 10.5426 187.632 11.288C188.913 12.0333 190.505 13.5418 192.409 15.8133C194.313 18.0494 196.251 19.7885 198.224 21.0308Z" fill="#EB9A25"/>
<path d="M245.091 21.0308C244.952 18.5818 244.468 16.1505 243.637 13.737C242.46 10.2587 241.872 7.86289 241.872 6.54964C241.872 4.70401 242.287 3.30203 243.118 2.34372C243.983 1.38541 245.039 0.90625 246.285 0.90625C247.358 0.90625 248.293 1.38541 249.089 2.34372C249.885 3.30203 250.283 4.66851 250.283 6.44316C250.283 8.04035 249.816 10.2764 248.881 13.1514C247.981 15.9908 247.427 18.6173 247.22 21.0308C249.124 19.7885 250.837 18.2801 252.36 16.5054C254.714 13.7015 256.462 11.9623 257.604 11.288C258.747 10.6136 259.906 10.2764 261.083 10.2764C262.225 10.2764 263.177 10.6846 263.939 11.5009C264.735 12.2818 265.133 13.2223 265.133 14.3226C265.133 15.6359 264.562 16.8071 263.42 17.8364C262.277 18.8657 259.422 19.895 254.852 20.9243C252.187 21.5277 249.972 22.2198 248.206 23.0007C250.006 23.959 252.204 24.6866 254.8 25.1835C258.989 25.9643 261.723 26.9404 263.004 28.1117C264.32 29.2829 264.977 30.5607 264.977 31.9449C264.977 33.0097 264.579 33.9325 263.783 34.7134C263.022 35.4942 262.122 35.8846 261.083 35.8846C260.045 35.8846 258.885 35.512 257.604 34.7666C256.358 34.0213 254.662 32.3531 252.516 29.7621C251.097 28.0229 249.331 26.3903 247.22 24.8641C247.289 26.8872 247.687 29.0877 248.414 31.4658C249.66 35.6539 250.283 38.5111 250.283 40.0373C250.283 41.4571 249.868 42.6638 249.037 43.6576C248.206 44.6159 247.324 45.0951 246.389 45.0951C245.108 45.0951 243.949 44.5804 242.91 43.5511C242.183 42.8058 241.82 41.6168 241.82 39.9841C241.82 38.2804 242.218 36.2396 243.014 33.8615C243.81 31.448 244.312 29.7976 244.52 28.9103C244.727 27.9874 244.918 26.6387 245.091 24.8641C243.049 26.2483 241.266 27.7922 239.743 29.4959C237.216 32.4063 235.312 34.252 234.031 35.0328C233.131 35.6007 232.197 35.8846 231.228 35.8846C230.051 35.8846 229.047 35.4765 228.216 34.6601C227.385 33.8438 226.97 32.9387 226.97 31.9449C226.97 31.0576 227.316 30.1348 228.008 29.1765C228.735 28.1827 229.808 27.3663 231.228 26.7274C232.162 26.3015 234.291 25.7336 237.614 25.0238C239.76 24.5624 241.854 23.888 243.897 23.0007C242.028 22.0424 239.795 21.297 237.199 20.7646C232.941 19.8418 230.31 19.0077 229.306 18.2623C227.749 17.0911 226.97 15.6714 226.97 14.0032C226.97 13.0449 227.351 12.1753 228.112 11.3944C228.908 10.5781 229.826 10.1699 230.864 10.1699C232.006 10.1699 233.218 10.5426 234.499 11.288C235.78 12.0333 237.372 13.5418 239.276 15.8133C241.179 18.0494 243.118 19.7885 245.091 21.0308Z" fill="#EB9A25"/>
<path d="M291.958 21.0308C291.819 18.5818 291.335 16.1505 290.504 13.737C289.327 10.2587 288.739 7.86289 288.739 6.54964C288.739 4.70401 289.154 3.30203 289.985 2.34372C290.85 1.38541 291.906 0.90625 293.152 0.90625C294.225 0.90625 295.16 1.38541 295.956 2.34372C296.752 3.30203 297.15 4.66851 297.15 6.44316C297.15 8.04035 296.683 10.2764 295.748 13.1514C294.848 15.9908 294.294 18.6173 294.087 21.0308C295.991 19.7885 297.704 18.2801 299.227 16.5054C301.581 13.7015 303.329 11.9623 304.471 11.288C305.614 10.6136 306.773 10.2764 307.95 10.2764C309.092 10.2764 310.044 10.6846 310.806 11.5009C311.602 12.2818 312 13.2223 312 14.3226C312 15.6359 311.429 16.8071 310.287 17.8364C309.144 18.8657 306.289 19.895 301.719 20.9243C299.054 21.5277 296.839 22.2198 295.073 23.0007C296.873 23.959 299.071 24.6866 301.667 25.1835C305.856 25.9643 308.59 26.9404 309.871 28.1117C311.187 29.2829 311.844 30.5607 311.844 31.9449C311.844 33.0097 311.446 33.9325 310.65 34.7134C309.889 35.4942 308.989 35.8846 307.95 35.8846C306.912 35.8846 305.752 35.512 304.471 34.7666C303.225 34.0213 301.529 32.3531 299.383 29.7621C297.964 28.0229 296.198 26.3903 294.087 24.8641C294.156 26.8872 294.554 29.0877 295.281 31.4658C296.527 35.6539 297.15 38.5111 297.15 40.0373C297.15 41.4571 296.735 42.6638 295.904 43.6576C295.073 44.6159 294.191 45.0951 293.256 45.0951C291.975 45.0951 290.816 44.5804 289.777 43.5511C289.05 42.8058 288.687 41.6168 288.687 39.9841C288.687 38.2804 289.085 36.2396 289.881 33.8615C290.677 31.448 291.179 29.7976 291.387 28.9103C291.594 27.9874 291.785 26.6387 291.958 24.8641C289.916 26.2483 288.133 27.7922 286.61 29.4959C284.083 32.4063 282.179 34.252 280.898 35.0328C279.998 35.6007 279.064 35.8846 278.095 35.8846C276.918 35.8846 275.914 35.4765 275.083 34.6601C274.252 33.8438 273.837 32.9387 273.837 31.9449C273.837 31.0576 274.183 30.1348 274.875 29.1765C275.602 28.1827 276.675 27.3663 278.095 26.7274C279.029 26.3015 281.158 25.7336 284.481 25.0238C286.627 24.5624 288.721 23.888 290.764 23.0007C288.894 22.0424 286.662 21.297 284.066 20.7646C279.808 19.8418 277.177 19.0077 276.173 18.2623C274.616 17.0911 273.837 15.6714 273.837 14.0032C273.837 13.0449 274.218 12.1753 274.979 11.3944C275.775 10.5781 276.693 10.1699 277.731 10.1699C278.873 10.1699 280.085 10.5426 281.366 11.288C282.646 12.0333 284.239 13.5418 286.143 15.8133C288.046 18.0494 289.985 19.7885 291.958 21.0308Z" fill="#EB9A25"/>
<path d="M44.1888 23.0007C44.1888 29.0846 42.0114 34.3041 37.6566 38.6589C33.3658 42.9497 28.1784 45.0951 22.0944 45.0951C15.9464 45.0951 10.727 42.9497 6.4362 38.6589C2.1454 34.3681 0 29.1487 0 23.0007C0 16.9167 2.1454 11.7293 6.4362 7.43852C10.791 3.08367 16.0105 0.90625 22.0944 0.90625C28.1144 0.90625 33.3017 3.08367 37.6566 7.43852C42.0114 11.7934 44.1888 16.9807 44.1888 23.0007ZM4.61101 23.0007C4.61101 27.7398 6.34014 31.8384 9.7984 35.2967C13.2567 38.755 17.3553 40.4841 22.0944 40.4841C26.8976 40.4841 30.9962 38.787 34.3904 35.3928C37.8487 31.9345 39.5778 27.8038 39.5778 23.0007C39.5778 18.1335 37.8807 14.0028 34.4865 10.6086C31.0923 7.21437 26.9616 5.51726 22.0944 5.51726C17.2913 5.51726 13.1606 7.24639 9.70233 10.7046C6.30812 14.0989 4.61101 18.1975 4.61101 23.0007ZM22.4787 34.4321C19.2125 34.4321 16.4908 33.3434 14.3133 31.166C12.1359 28.9886 11.0472 26.2668 11.0472 23.0007C11.0472 19.7986 12.1359 17.1088 14.3133 14.9314C16.5548 12.6899 19.2766 11.5692 22.4787 11.5692C25.5527 11.5692 28.3385 12.818 30.8361 15.3157L27.7621 18.1015C26.2892 16.5645 24.528 15.796 22.4787 15.796C20.5574 15.796 18.8923 16.5004 17.4834 17.9094C16.1385 19.3183 15.4661 21.0154 15.4661 23.0007C15.4661 23.9613 15.6582 24.8899 16.0425 25.7865C16.4267 26.6831 16.9391 27.4516 17.5795 28.092C18.2199 28.7324 18.9564 29.2448 19.7889 29.629C20.6215 30.0133 21.518 30.2054 22.4787 30.2054C24.9123 30.2054 26.8335 29.2127 28.2424 27.2274L31.5086 29.8211C29.2031 32.8951 26.1931 34.4321 22.4787 34.4321Z" fill="#EB9A25"/>
<line x1="63.6052" y1="22.3305" x2="160.687" y2="22.3305" stroke="#EB9A25" stroke-width="1.33906"/>
</svg>
