<svg width="213" height="213" viewBox="0 0 213 213" fill="none" xmlns="http://www.w3.org/2000/svg">
<rect width="213" height="213" rx="26" fill="#280822"/>
<path d="M86.2529 158.5C86.2529 146.319 85.3931 135.285 83.6735 125.397H55.5862V158.5H36.9569V54.749H46.2715C69.7731 54.749 89.5489 79.5403 97.0006 101.752C102.303 117.229 105.026 136.288 105.026 158.5H86.2529ZM55.5862 106.768H79.0878C74.3588 93.584 66.7638 81.8332 55.5862 76.2444V106.768Z" fill="#FEF8E8"/>
<path d="M142.305 162.083C133.277 162.083 124.679 158.5 118.23 152.051C111.781 145.746 108.342 137.148 108.342 128.12V97.4531H126.972V128.12C126.972 136.575 133.85 143.453 142.305 143.453C150.76 143.453 157.638 136.575 157.638 128.12V73.5216H126.972V54.749H176.268V128.12C176.268 137.148 172.828 145.746 166.38 152.051C159.931 158.5 151.333 162.083 142.305 162.083Z" fill="#FEF8E8"/>
</svg>
