<svg width="95" height="20" viewBox="0 0 95 20" fill="none" xmlns="http://www.w3.org/2000/svg">
<g clip-path="url(#clip0_1222_933)">
<path d="M14.1822 20V0.226743H20.1005C23.837 0.226743 27.1371 2.7359 27.1371 6.99056C27.1371 8.79061 26.5371 10.3179 25.4734 11.4634C26.4825 12.3362 27.1098 13.5907 27.1098 15.0908C27.1098 17.7636 24.9552 20 22.2551 20H14.1822ZM17.7277 16.4545H22.2551C22.9915 16.4545 23.5643 15.7999 23.5643 15.0362C23.5643 14.2726 22.9915 13.5635 22.2551 13.5635H18.1641V10.3179H20.346C21.7642 10.3179 23.5643 9.58154 23.5643 7.12693C23.5643 4.97233 22.146 3.77229 20.1005 3.77229H17.7277V16.4545ZM35.8341 20V13.6998H31.4976V20H27.9521V0.254016H31.4976V10.1543H35.8341V0.254016H39.3797V20H35.8341ZM40.4702 20V0.254016H44.0157V20H40.4702ZM51.5956 20.6818C47.7773 20.6818 44.8318 18.0636 44.8318 14.218H48.3774C48.3774 15.8272 49.7138 17.2454 51.5956 17.2454C53.4229 17.2454 54.2412 16.3999 54.2412 15.0908C54.2412 13.2907 52.1138 12.8544 49.741 11.9271C47.4228 10.9998 44.8318 9.58154 44.8318 5.89962C44.8318 2.35407 47.7501 -0.291452 51.2956 -0.291452C54.8412 -0.291452 57.7867 2.62681 57.7867 6.17236V8.8997H54.2139V6.17236C54.2139 4.56322 52.9048 3.2541 51.2956 3.2541C49.6865 3.2541 48.3774 4.29049 48.3774 5.89962C48.3774 7.97241 50.0138 8.79061 51.9502 9.52699C54.5957 10.5634 57.7867 11.4634 57.7867 15.3635C57.7867 18.9091 54.8684 20.6818 51.5956 20.6818ZM66.4901 20V13.6998H62.1537V20H58.6081V0.254016H62.1537V10.1543H66.4901V0.254016H70.0357V20H66.4901ZM71.1262 20V0.254016H80.2901V3.82684H74.6717V10.1543H77.5355V13.6998H74.6717V16.4545H80.2901V20H71.1262ZM80.9809 20V0.254016H84.5264V10.3725C87.5265 8.65424 89.5447 4.80868 89.5447 0.254016H93.1175C93.1175 4.80868 91.1266 8.73606 88.4265 11.4089C89.1356 13.5362 91.0993 16.8363 92.9539 18.8272C93.3357 19.2363 93.7448 19.6182 94.1812 20H89.5447C87.9356 18.1727 86.5992 15.8272 85.781 13.4544C85.3719 13.7271 84.9355 13.9453 84.5264 14.1362V20H80.9809Z" fill="white"/>
<path d="M4.07246 20C4.07246 17.6818 4.2361 15.5817 4.56338 13.6998H9.90898V20H13.4545V0.254016H11.6818C7.20891 0.254016 3.44517 4.97233 2.02695 9.19971C1.01783 12.1452 0.499638 15.7726 0.499638 20H4.07246ZM9.90898 10.1543H5.43613C6.33616 7.64512 7.78165 5.4087 9.90898 4.34504V10.1543Z" fill="white"/>
</g>
<defs>
<clipPath id="clip0_1222_933">
<rect width="95" height="20" fill="white"/>
</clipPath>
</defs>
</svg>
