<svg width="109" height="21" viewBox="0 0 109 21" fill="none" xmlns="http://www.w3.org/2000/svg">
<path d="M6.73654 20.6818C5.01832 20.6818 3.38191 20 2.1546 18.7727C0.927298 17.5727 0.272735 15.9363 0.272735 14.218V8.38151H3.81828V14.218C3.81828 15.8272 5.12741 17.1363 6.73654 17.1363C8.34568 17.1363 9.6548 15.8272 9.6548 14.218V3.82684H3.81828V0.254016H13.2004V14.218C13.2004 15.9363 12.5458 17.5727 11.3185 18.7727C10.0912 20 8.45477 20.6818 6.73654 20.6818ZM22.1175 20V13.6998H17.781V20H14.2355V0.254016H17.781V10.1543H22.1175V0.254016H25.663V20H22.1175ZM36.1356 20C36.1356 17.6818 35.972 15.5817 35.6447 13.6998H30.2991V20H26.7536V0.254016H28.5263C32.9992 0.254016 36.7629 4.97233 38.1811 9.19971C39.1903 12.1452 39.7084 15.7726 39.7084 20H36.1356ZM30.2991 10.1543H34.772C33.8719 7.64512 32.4264 5.4087 30.2991 4.34504V10.1543Z" fill="white"/>
</svg>
