<svg width="40" height="40" viewBox="0 0 40 40" fill="none" xmlns="http://www.w3.org/2000/svg">
<g opacity="0.2">
<ellipse cx="20" cy="20" rx="20" ry="20" fill="#898989" fill-opacity="0.42"/>
<path d="M39.6044 20C39.6044 30.8272 30.8272 39.6044 20 39.6044C9.17277 39.6044 0.395569 30.8272 0.39557 20C0.395571 9.17277 9.17277 0.395572 20 0.395572C30.8272 0.395573 39.6044 9.17277 39.6044 20Z" stroke="#898989" stroke-opacity="0.42" stroke-width="0.791142"/>
</g>
<path d="M19.9987 16.4078C17.5297 16.4078 15.5371 18.4004 15.5371 20.8695C15.5371 23.3385 17.5297 25.3312 19.9987 25.3312C22.4677 25.3312 24.4604 23.3385 24.4604 20.8695C24.4604 18.4004 22.4677 16.4078 19.9987 16.4078ZM19.9987 23.7693C18.402 23.7693 17.099 22.4662 17.099 20.8695C17.099 19.2727 18.402 17.9697 19.9987 17.9697C21.5954 17.9697 22.8985 19.2727 22.8985 20.8695C22.8985 22.4662 21.5954 23.7693 19.9987 23.7693ZM24.6431 15.1852C24.0666 15.1852 23.6011 15.6507 23.6011 16.2272C23.6011 16.8037 24.0666 17.2692 24.6431 17.2692C25.2196 17.2692 25.6851 16.8059 25.6851 16.2272C25.6853 16.0903 25.6584 15.9548 25.6061 15.8283C25.5538 15.7018 25.4771 15.5868 25.3803 15.49C25.2835 15.3932 25.1685 15.3165 25.042 15.2642C24.9155 15.2119 24.78 15.185 24.6431 15.1852V15.1852ZM28.6958 20.8695C28.6958 19.6687 28.7066 18.4787 28.6392 17.2801C28.5718 15.8879 28.2542 14.6522 27.2361 13.6342C26.2159 12.6139 24.9824 12.2985 23.5902 12.231C22.3894 12.1636 21.1995 12.1745 20.0009 12.1745C18.8001 12.1745 17.6102 12.1636 16.4116 12.231C15.0194 12.2985 13.7838 12.6161 12.7657 13.6342C11.7455 14.6544 11.4301 15.8879 11.3626 17.2801C11.2952 18.4809 11.3061 19.6708 11.3061 20.8695C11.3061 22.0681 11.2952 23.2602 11.3626 24.4589C11.4301 25.8511 11.7477 27.0867 12.7657 28.1048C13.786 29.1251 15.0194 29.4405 16.4116 29.5079C17.6124 29.5754 18.8023 29.5645 20.0009 29.5645C21.2017 29.5645 22.3916 29.5754 23.5902 29.5079C24.9824 29.4405 26.218 29.1229 27.2361 28.1048C28.2563 27.0845 28.5718 25.8511 28.6392 24.4589C28.7088 23.2602 28.6958 22.0703 28.6958 20.8695V20.8695ZM26.7815 25.999C26.6227 26.395 26.4312 26.6908 26.1245 26.9954C25.8178 27.3021 25.5241 27.4935 25.1282 27.6523C23.984 28.107 21.267 28.0047 19.9987 28.0047C18.7305 28.0047 16.0113 28.107 14.8671 27.6545C14.4712 27.4957 14.1753 27.3043 13.8708 26.9975C13.5641 26.6908 13.3726 26.3971 13.2138 26.0012C12.7614 24.8548 12.8636 22.1377 12.8636 20.8695C12.8636 19.6012 12.7614 16.882 13.2138 15.7378C13.3726 15.3418 13.5641 15.046 13.8708 14.7414C14.1775 14.4369 14.4712 14.2433 14.8671 14.0845C16.0113 13.632 18.7305 13.7342 19.9987 13.7342C21.267 13.7342 23.9861 13.632 25.1304 14.0845C25.5263 14.2433 25.8221 14.4347 26.1267 14.7414C26.4334 15.0482 26.6248 15.3418 26.7836 15.7378C27.2361 16.882 27.1339 19.6012 27.1339 20.8695C27.1339 22.1377 27.2361 24.8548 26.7815 25.999Z" fill="#280822"/>
</svg>
