<svg width="40" height="40" viewBox="0 0 40 40" fill="none" xmlns="http://www.w3.org/2000/svg">
<g opacity="0.2">
<ellipse cx="20" cy="20" rx="20" ry="20" fill="#898989" fill-opacity="0.42"/>
<path d="M39.6044 20C39.6044 30.8272 30.8272 39.6044 20 39.6044C9.17277 39.6044 0.395569 30.8272 0.39557 20C0.395571 9.17277 9.17277 0.395572 20 0.395572C30.8272 0.395573 39.6044 9.17277 39.6044 20Z" stroke="#898989" stroke-opacity="0.42" stroke-width="0.791142"/>
</g>
<path d="M16.4942 13.9581C16.494 14.3781 16.327 14.7807 16.0299 15.0775C15.7328 15.3743 15.33 15.5409 14.9101 15.5407C14.4901 15.5405 14.0875 15.3735 13.7907 15.0764C13.4939 14.7793 13.3273 14.3765 13.3275 13.9566C13.3277 13.5366 13.4947 13.134 13.7918 12.8372C14.0889 12.5404 14.4917 12.3738 14.9116 12.374C15.3316 12.3742 15.7342 12.5412 16.031 12.8383C16.3278 13.1354 16.4944 13.5382 16.4942 13.9581ZM16.5417 16.7131H13.375V26.6248H16.5417V16.7131ZM21.545 16.7131H18.3942V26.6248H21.5133V21.4236C21.5133 18.5261 25.2896 18.2569 25.2896 21.4236V26.6248H28.4167V20.3469C28.4167 15.4623 22.8275 15.6444 21.5133 18.0431L21.545 16.7131Z" fill="#280822"/>
</svg>
