<svg width="40" height="40" viewBox="0 0 40 40" fill="none" xmlns="http://www.w3.org/2000/svg">
<g opacity="0.2">
<ellipse cx="20" cy="20" rx="20" ry="20" fill="#898989" fill-opacity="0.42"/>
<path d="M39.6044 20C39.6044 30.8272 30.8272 39.6044 20 39.6044C9.17277 39.6044 0.395569 30.8272 0.39557 20C0.395571 9.17277 9.17277 0.395572 20 0.395572C30.8272 0.395573 39.6044 9.17277 39.6044 20Z" stroke="#898989" stroke-opacity="0.42" stroke-width="0.791142"/>
</g>
<path d="M24.725 13H27.1787L21.8187 18.9297L28.125 27H23.1879L19.3181 22.1064L14.8953 27H12.4393L18.1719 20.6554L12.125 13.0011H17.1879L20.6804 17.4732L24.725 13ZM23.8621 25.5788H25.2221L16.445 14.3473H14.9867L23.8621 25.5788Z" fill="#280822"/>
</svg>
