<svg width="276" height="119" viewBox="0 0 276 119" fill="none" xmlns="http://www.w3.org/2000/svg">
<g opacity="0.5">
<path d="M95.5297 50.0623L88.1339 49.3925L88.3224 47.3111C88.4002 46.4518 88.6157 45.7576 88.969 45.2286C89.3229 44.6925 89.7902 44.3158 90.3709 44.0986C90.9452 43.8736 91.6127 43.7956 92.3734 43.8645C93.1341 43.9334 93.7768 44.1301 94.3013 44.4545C94.8265 44.772 95.2153 45.2226 95.4678 45.8065C95.7132 46.3897 95.7967 47.1145 95.7182 47.9809L95.5297 50.0623ZM94.7379 48.9254L94.8279 47.9322C94.8891 47.256 94.8252 46.707 94.6362 46.2851C94.4471 45.8632 94.1525 45.5489 93.7522 45.3422C93.3449 45.1349 92.8524 45.0051 92.2749 44.9528C91.6902 44.8998 91.179 44.9387 90.741 45.0695C90.3031 45.2003 89.9533 45.4562 89.6915 45.8373C89.4297 46.2183 89.2682 46.747 89.207 47.4232L89.117 48.4163L94.7379 48.9254Z" fill="#959595"/>
<path d="M96.4208 42.5424L89.2388 40.6541L90.4311 36.1192L91.2724 36.3404L90.3499 39.8493L92.6481 40.4535L93.4897 37.2524L94.3105 37.4682L93.4689 40.6694L95.8493 41.2952L96.7718 37.7862L97.6131 38.0074L96.4208 42.5424Z" fill="#959595"/>
<path d="M99.2219 34.3648C99.0078 34.8579 98.7315 35.2545 98.3929 35.5547C98.0479 35.8521 97.6681 36.0341 97.2536 36.1009C96.8391 36.1676 96.4131 36.1098 95.9757 35.9276L96.4236 34.8961C96.6701 35.0032 96.9211 35.0466 97.1766 35.0265C97.4284 34.997 97.6624 34.902 97.8786 34.7415C98.0912 34.5716 98.2665 34.3278 98.4045 34.0099C98.5228 33.7374 98.5788 33.4842 98.5725 33.2501C98.569 33.0096 98.512 32.8036 98.4013 32.6322C98.2842 32.458 98.1219 32.3258 97.9143 32.2356C97.6872 32.137 97.4766 32.1072 97.2823 32.1462C97.0843 32.1759 96.894 32.2591 96.7114 32.3956C96.5287 32.5322 96.3463 32.7036 96.1642 32.9098C95.9785 33.1067 95.781 33.3217 95.5719 33.5547C95.1516 34.0431 94.7443 34.3597 94.3499 34.5045C93.9517 34.64 93.5289 34.6106 93.0812 34.4162C92.6985 34.25 92.4057 34.0188 92.2028 33.7225C91.9962 33.4169 91.8869 33.0649 91.8749 32.6664C91.8564 32.2651 91.9429 31.8439 92.1345 31.4028C92.3289 30.9552 92.5776 30.6044 92.8806 30.3505C93.1864 30.09 93.5229 29.9277 93.8901 29.8636C94.2572 29.7994 94.6336 29.8472 95.0191 30.0069L94.5712 31.0383C94.3961 30.9623 94.203 30.9363 93.9921 30.9604C93.784 30.9779 93.5886 31.055 93.4059 31.1916C93.2196 31.3188 93.0686 31.5155 92.9531 31.7814C92.8481 32.0057 92.7964 32.2223 92.7982 32.4312C92.8028 32.6337 92.8572 32.8192 92.9613 32.9878C93.0683 33.1499 93.2255 33.2761 93.4331 33.3662C93.6407 33.4563 93.8291 33.4842 93.9983 33.4497C94.161 33.4124 94.323 33.3324 94.4842 33.2096C94.6483 33.0804 94.8185 32.9192 94.995 32.7259C95.1649 32.5299 95.3545 32.3153 95.5636 32.0823C95.8176 31.7993 96.0834 31.5601 96.3611 31.3645C96.6323 31.1662 96.9268 31.0473 97.2446 31.008C97.5587 30.9593 97.9104 31.0195 98.2996 31.1885C98.6369 31.335 98.9135 31.5592 99.1294 31.8611C99.3453 32.1631 99.4726 32.5268 99.5114 32.9523C99.5438 33.375 99.4473 33.8459 99.2219 34.3648Z" fill="#959595"/>
<path d="M100.834 30.8201L94.3807 27.1458L94.9056 26.2239L101.359 29.8981L100.834 30.8201Z" fill="#959595"/>
<path d="M104.157 25.9552C103.738 26.5078 103.242 26.8995 102.668 27.1303C102.098 27.3555 101.498 27.4108 100.866 27.2962C100.234 27.1816 99.6138 26.8938 99.0048 26.4327C98.4015 25.976 97.9582 25.4541 97.6751 24.8672C97.3921 24.2804 97.2852 23.6716 97.3545 23.0411C97.4182 22.4062 97.6763 21.79 98.1288 21.1922C98.641 20.5156 99.2293 20.0783 99.8936 19.8804C100.557 19.6727 101.225 19.7216 101.898 20.0274L101.168 20.9916C100.781 20.823 100.39 20.8064 99.9949 20.9418C99.5983 21.0673 99.2356 21.3472 98.9069 21.7814C98.591 22.1986 98.4087 22.6328 98.36 23.0838C98.3156 23.5292 98.4013 23.9666 98.6172 24.3962C98.8374 24.8201 99.1843 25.2114 99.658 25.57C100.137 25.9328 100.611 26.1627 101.079 26.2596C101.551 26.3508 101.988 26.3181 102.39 26.1615C102.797 25.9993 103.148 25.7236 103.442 25.3345C103.895 24.7368 104.064 24.1555 103.951 23.5906C103.837 23.0257 103.51 22.503 102.969 22.0224L101.74 23.6464L101.088 23.1534L102.971 20.6666L106.168 23.0871L105.579 23.8653L104.623 23.2478C104.74 23.5496 104.807 23.8483 104.822 24.1441C104.837 24.4298 104.792 24.7239 104.687 25.0261C104.581 25.3184 104.404 25.6281 104.157 25.9552Z" fill="#959595"/>
<path d="M107.335 21.9012L102.361 16.3875L103.148 15.6768L109.777 17.3695L105.96 13.1398L106.748 12.4291L111.723 17.9428L110.935 18.6534L104.307 16.9607L108.123 21.1905L107.335 21.9012Z" fill="#959595"/>
<path d="M113.119 16.9628L109.106 10.7145L113.051 8.18044L113.521 8.91238L110.468 10.8732L111.753 12.8726L114.538 11.0838L114.996 11.7979L112.211 13.5867L113.541 15.6576L116.594 13.6968L117.064 14.4287L113.119 16.9628Z" fill="#959595"/>
<path d="M118.445 13.6597L115.497 6.84359L117.415 6.01403C118.207 5.67154 118.92 5.52898 119.553 5.58634C120.193 5.64089 120.748 5.87124 121.216 6.27739C121.688 6.67424 122.076 7.22321 122.379 7.92429C122.682 8.62537 122.817 9.28382 122.783 9.89964C122.755 10.5127 122.545 11.0696 122.153 11.5705C121.758 12.065 121.161 12.4848 120.363 12.8301L118.445 13.6597ZM119.065 12.4206L119.98 12.0248C120.603 11.7553 121.055 11.4367 121.335 11.0689C121.615 10.7012 121.75 10.2921 121.74 9.84177C121.728 9.3849 121.606 8.89032 121.376 8.35802C121.143 7.81922 120.865 7.38877 120.54 7.06665C120.216 6.74454 119.824 6.55962 119.364 6.51191C118.904 6.4642 118.363 6.57509 117.74 6.84459L116.824 7.24042L119.065 12.4206Z" fill="#959595"/>
<path d="M127.832 10.1306L129.313 2.35961L130.454 2.17133L134.343 9.05616L133.233 9.23926L130.086 3.5224L128.921 9.95094L127.832 10.1306ZM128.748 8.11938L128.903 7.23364L132.346 6.66534L132.767 7.45607L128.748 8.11938Z" fill="#959595"/>
<path d="M135.584 9.00733L135.657 1.58155L136.718 1.5919L140.449 7.32548L140.505 1.62884L141.566 1.63919L141.493 9.06498L140.432 9.05463L136.701 3.32104L136.645 9.01768L135.584 9.00733Z" fill="#959595"/>
<path d="M143.206 9.24744L144.582 1.94989L146.635 2.33713C147.483 2.49701 148.154 2.77813 148.646 3.18051C149.146 3.5842 149.476 4.08547 149.637 4.68432C149.805 5.27753 149.819 5.94944 149.678 6.70005C149.536 7.45065 149.279 8.07145 148.905 8.56245C148.539 9.05475 148.053 9.39857 147.448 9.5939C146.844 9.78227 146.114 9.79587 145.259 9.63468L143.206 9.24744ZM144.413 8.56831L145.393 8.75308C146.06 8.87888 146.613 8.86793 147.051 8.72023C147.489 8.57252 147.83 8.30937 148.074 7.93076C148.32 7.54521 148.496 7.06748 148.604 6.49758C148.713 5.92073 148.723 5.40807 148.635 4.95962C148.547 4.51117 148.325 4.13839 147.971 3.84129C147.617 3.54419 147.106 3.33274 146.439 3.20694L145.459 3.02217L144.413 8.56831Z" fill="#959595"/>
<path d="M156.266 13.2426C155.619 12.9395 155.126 12.5329 154.787 12.0226C154.458 11.509 154.286 10.9327 154.273 10.294C154.263 9.64877 154.42 8.98034 154.744 8.28867C155.065 7.6034 155.477 7.05821 155.979 6.65308C156.481 6.24796 157.034 6.01083 157.636 5.94169C158.248 5.86915 158.878 5.98442 159.524 6.2875C160.306 6.65359 160.851 7.1396 161.161 7.74552C161.471 8.35143 161.529 9.02703 161.336 9.77232L160.299 9.28619C160.382 8.8411 160.332 8.43106 160.149 8.05607C159.965 7.68107 159.623 7.37654 159.124 7.14248C158.682 6.93542 158.248 6.86105 157.823 6.91935C157.397 6.97765 157.003 7.16013 156.641 7.46677C156.285 7.77641 155.979 8.20342 155.724 8.74779C155.469 9.29216 155.335 9.80339 155.322 10.2815C155.318 10.7562 155.43 11.1757 155.657 11.5401C155.888 11.8981 156.224 12.1806 156.666 12.3876C157.166 12.6217 157.615 12.6957 158.015 12.6096C158.418 12.517 158.762 12.2995 159.047 11.9568L160.085 12.4429C159.645 13.049 159.093 13.4269 158.429 13.5767C157.768 13.7201 157.047 13.6087 156.266 13.2426Z" fill="#959595"/>
<path d="M163.074 17.2905C162.515 16.8811 162.115 16.3913 161.875 15.8212C161.645 15.2495 161.58 14.6448 161.678 14.0071C161.781 13.3637 162.058 12.7338 162.509 12.1175C162.957 11.5069 163.469 11.0582 164.047 10.7714C164.629 10.479 165.228 10.356 165.842 10.4027C166.462 10.4535 167.052 10.6836 167.611 11.0931C168.182 11.5108 168.582 12.0056 168.813 12.5772C169.048 13.1531 169.112 13.7606 169.003 14.3999C168.905 15.0376 168.632 15.6617 168.185 16.2723C167.734 16.8887 167.217 17.3431 166.635 17.6356C166.062 17.9265 165.466 18.0466 164.846 17.9957C164.235 17.9434 163.645 17.7083 163.074 17.2905ZM163.632 16.5287C164.032 16.8211 164.446 16.9797 164.875 17.0045C165.309 17.0334 165.734 16.9323 166.149 16.7012C166.563 16.47 166.948 16.1119 167.303 15.6269C167.658 15.1418 167.883 14.6667 167.978 14.2016C168.073 13.7366 168.039 13.3041 167.876 12.9042C167.723 12.5028 167.447 12.1559 167.047 11.8635C166.659 11.5794 166.248 11.4229 165.813 11.3939C165.389 11.3635 164.966 11.4617 164.546 11.6887C164.125 11.9156 163.738 12.2717 163.383 12.7567C163.028 13.2418 162.805 13.719 162.716 14.1882C162.627 14.6575 162.658 15.0928 162.812 15.4942C162.971 15.8998 163.244 16.2446 163.632 16.5287Z" fill="#959595"/>
<path d="M167.303 20.507L172.742 15.4512L174.165 16.9819C174.753 17.6139 175.125 18.2381 175.283 18.8544C175.445 19.4758 175.413 20.0752 175.187 20.6524C174.971 21.2301 174.583 21.7789 174.024 22.2989C173.464 22.8189 172.888 23.1657 172.297 23.3393C171.71 23.518 171.114 23.5063 170.511 23.3041C169.913 23.0971 169.318 22.675 168.726 22.0378L167.303 20.507ZM168.678 20.6774L169.357 21.4078C169.819 21.9051 170.27 22.2243 170.711 22.3655C171.151 22.5067 171.582 22.4974 172.003 22.3377C172.429 22.1731 172.855 21.8934 173.28 21.4985C173.71 21.0989 174.022 20.6925 174.217 20.2792C174.413 19.866 174.456 19.4347 174.347 18.9853C174.239 18.536 173.953 18.0626 173.491 17.5653L172.812 16.8349L168.678 20.6774Z" fill="#959595"/>
<path d="M172.306 26.1914L178.498 22.091L181.087 26.0004L180.361 26.4808L178.358 23.4558L176.377 24.768L178.204 27.5276L177.497 27.9962L175.669 25.2366L173.617 26.5956L175.621 29.6205L174.895 30.1009L172.306 26.1914Z" fill="#959595"/>
<path d="M175.685 31.4755L182.468 28.4516L183.319 30.3604C183.67 31.1485 183.821 31.8596 183.77 32.4937C183.723 33.1343 183.499 33.6911 183.098 34.1641C182.707 34.6406 182.162 35.0344 181.464 35.3455C180.767 35.6565 180.11 35.7984 179.494 35.7711C178.88 35.7502 178.321 35.5466 177.816 35.1601C177.317 34.7708 176.89 34.1788 176.536 33.3843L175.685 31.4755ZM176.931 32.0815L177.337 32.9924C177.614 33.6125 177.937 34.0606 178.308 34.3366C178.679 34.6126 179.09 34.7432 179.54 34.7283C179.997 34.7106 180.49 34.5836 181.019 34.3475C181.556 34.1084 181.983 33.825 182.301 33.4972C182.62 33.1693 182.8 32.7752 182.843 32.3149C182.885 31.8545 182.768 31.3143 182.492 30.6942L182.086 29.7834L176.931 32.0815Z" fill="#959595"/>
<path d="M179.362 41.3068L186.667 39.9751L187.16 42.6783C187.254 43.1932 187.248 43.6328 187.142 43.9972C187.044 44.3673 186.868 44.6654 186.615 44.8913C186.368 45.116 186.067 45.2607 185.712 45.3253C185.344 45.3925 185.019 45.3655 184.738 45.2442C184.458 45.1298 184.225 44.9531 184.037 44.714C183.858 44.4807 183.731 44.2163 183.656 43.9209L183.788 44.0585C183.839 44.3728 183.804 44.6775 183.685 44.9723C183.574 45.2659 183.396 45.5139 183.152 45.7164C182.91 45.9259 182.626 46.0605 182.299 46.1201C181.923 46.1886 181.565 46.1568 181.224 46.0247C180.892 45.8984 180.607 45.6736 180.368 45.3505C180.13 45.0273 179.963 44.6083 179.87 44.0934L179.362 41.3068ZM180.418 42.1926L180.713 43.8103C180.795 44.2625 180.964 44.5984 181.22 44.8178C181.483 45.0359 181.809 45.1094 182.199 45.0384C182.581 44.9687 182.863 44.7807 183.045 44.4744C183.226 44.1682 183.276 43.7889 183.193 43.3366L182.902 41.7398L180.418 42.1926ZM183.706 41.5933L183.987 43.138C184.067 43.5763 184.229 43.8919 184.473 44.0847C184.723 44.2763 185.029 44.3391 185.391 44.2732C185.739 44.2098 185.993 44.0449 186.153 43.7785C186.32 43.5108 186.362 43.1508 186.28 42.6986L186.002 41.1748L183.706 41.5933Z" fill="#959595"/>
<path d="M180.411 49.412L183.168 49.3351L187.766 46.7552L187.8 47.9535L184.128 49.8814L184.126 49.7965L187.899 51.506L187.932 52.6938L183.198 50.3955L180.441 50.4725L180.411 49.412Z" fill="#959595"/>
</g>
<path d="M52.1674 95.9551V65.2105H61.3695C67.1792 65.2105 72.3104 69.1119 72.3104 75.7272C72.3104 78.5261 71.3774 80.9008 69.7236 82.6819C71.2926 84.0389 72.268 85.9896 72.268 88.3219C72.268 92.4778 68.9179 95.9551 64.7196 95.9551H52.1674ZM57.6802 90.4423H64.7196C65.8646 90.4423 66.7552 89.4245 66.7552 88.2371C66.7552 87.0497 65.8646 85.9472 64.7196 85.9472H58.3587V80.9008H61.7512C63.9563 80.9008 66.7552 79.7558 66.7552 75.9393C66.7552 72.5892 64.55 70.7233 61.3695 70.7233H57.6802V90.4423ZM85.833 95.9551V86.1592H79.0904V95.9551H73.5776V65.2529H79.0904V80.6464H85.833V65.2529H91.3459V95.9551H85.833ZM93.0415 95.9551V65.2529H98.5543V95.9551H93.0415ZM110.34 97.0152C104.403 97.0152 99.8232 92.9442 99.8232 86.9649H105.336C105.336 89.4669 107.414 91.672 110.34 91.672C113.181 91.672 114.453 90.3574 114.453 88.3219C114.453 85.5231 111.146 84.8446 107.456 83.4028C103.852 81.961 99.8232 79.7558 99.8232 74.031C99.8232 68.5182 104.361 64.4047 109.873 64.4047C115.386 64.4047 119.966 68.9422 119.966 74.4551V78.6957H114.411V74.4551C114.411 71.9531 112.375 69.9176 109.873 69.9176C107.372 69.9176 105.336 71.529 105.336 74.031C105.336 77.2539 107.88 78.5261 110.891 79.671C115.005 81.2825 119.966 82.6819 119.966 88.746C119.966 94.2588 115.429 97.0152 110.34 97.0152ZM133.499 95.9551V86.1592H126.756V95.9551H121.243V65.2529H126.756V80.6464H133.499V65.2529H139.012V95.9551H133.499ZM140.707 95.9551V65.2529H154.956V70.8081H146.22V80.6464H150.673V86.1592H146.22V90.4423H154.956V95.9551H140.707ZM156.03 95.9551V65.2529H161.543V80.9856C166.207 78.314 169.345 72.3347 169.345 65.2529H174.901C174.901 72.3347 171.805 78.4413 167.607 82.5971C168.709 85.9048 171.763 91.0359 174.646 94.1316C175.24 94.7677 175.876 95.3614 176.555 95.9551H169.345C166.843 93.1139 164.766 89.4669 163.493 85.7776C162.857 86.2016 162.179 86.5409 161.543 86.8377V95.9551H156.03ZM194.231 97.0152C191.559 97.0152 189.015 95.9551 187.106 94.0468C185.198 92.1809 184.18 89.6365 184.18 86.9649V77.89H189.693V86.9649C189.693 89.4669 191.729 91.5024 194.231 91.5024C196.733 91.5024 198.768 89.4669 198.768 86.9649V70.8081H189.693V65.2529H204.281V86.9649C204.281 89.6365 203.263 92.1809 201.355 94.0468C199.447 95.9551 196.902 97.0152 194.231 97.0152ZM218.146 95.9551V86.1592H211.403V95.9551H205.89V65.2529H211.403V80.6464H218.146V65.2529H223.659V95.9551H218.146ZM239.942 95.9551C239.942 92.3505 239.688 89.0852 239.179 86.1592H230.867V95.9551H225.354V65.2529H228.111C235.065 65.2529 240.917 72.5892 243.123 79.1622C244.692 83.742 245.497 89.3821 245.497 95.9551H239.942ZM230.867 80.6464H237.822C236.422 76.745 234.175 73.2677 230.867 71.6138V80.6464Z" fill="white"/>
<path d="M36.4481 95.9551C36.4481 92.3505 36.7025 89.0852 37.2114 86.1592H45.523V95.9551H51.0358V65.2529H48.2794C41.3248 65.2529 35.4727 72.5892 33.2676 79.1622C31.6985 83.742 30.8928 89.3821 30.8928 95.9551H36.4481ZM45.523 80.6464H38.5684C39.9678 76.745 42.2153 73.2677 45.523 71.6138V80.6464Z" fill="white"/>
<g opacity="0.5" clip-path="url(#clip0_1371_1420)">
<path d="M8.09305 118.938C5.8471 118.938 3.48115 118.097 1.90384 116.639C0.532274 115.386 -0.119221 113.808 0.0179354 112.092C0.0865138 111.217 0.497984 110.428 1.16662 109.862C1.83526 109.296 2.67535 109.021 3.53258 109.09C4.86986 109.21 5.88139 110.411 5.76138 111.766C5.67566 112.813 4.76699 113.585 3.73832 113.499C2.89823 113.431 2.28102 112.779 2.28102 111.989C2.28102 111.766 2.46961 111.578 2.69249 111.578C2.91537 111.578 3.10396 111.766 3.10396 111.989C3.10396 112.384 3.464 112.641 3.80689 112.659C4.37267 112.71 4.887 112.264 4.93844 111.681C5.00702 110.771 4.35552 109.982 3.464 109.896C2.82965 109.845 2.1953 110.051 1.69811 110.462C1.20091 110.891 0.89231 111.475 0.840877 112.144C0.686575 113.98 1.64667 115.266 2.46961 116.021C4.18408 117.583 7.01294 118.389 9.36175 117.994C14.1794 117.171 15.4824 114.22 15.1395 111.955C14.8652 110.222 13.4936 108.524 11.4877 108.798C10.1847 108.97 9.55034 110.016 9.37889 110.857C9.24173 111.595 9.37889 112.556 10.2533 113.036C10.459 113.156 10.5276 113.396 10.4076 113.602C10.2876 113.808 10.0475 113.877 9.8418 113.757C8.81312 113.173 8.31593 111.972 8.55595 110.703C8.83026 109.244 9.92752 108.181 11.3677 107.992C13.5965 107.683 15.5681 109.347 15.9624 111.852C16.4082 114.7 14.5737 117.96 9.4989 118.835C9.036 118.921 8.57309 118.955 8.09305 118.955V118.938Z" fill="white"/>
<path d="M3.68687 112.041C3.68687 112.401 3.39541 112.693 3.03538 112.693C2.67534 112.693 2.38388 112.401 2.38388 112.041C2.38388 111.68 2.67534 111.389 3.03538 111.389C3.39541 111.389 3.68687 111.68 3.68687 112.041Z" fill="white"/>
<path d="M10.8362 113.088C10.8362 113.448 10.5447 113.739 10.1847 113.739C9.82463 113.739 9.53317 113.448 9.53317 113.088C9.53317 112.727 9.82463 112.436 10.1847 112.436C10.5447 112.436 10.8362 112.727 10.8362 113.088Z" fill="white"/>
<path d="M258.816 113.866H17.1413C16.5377 113.866 16.0269 113.678 16.0269 113.455C16.0269 113.232 16.5377 113.043 17.1413 113.043H258.863C259.466 113.043 259.977 113.232 259.977 113.455C259.977 113.678 259.466 113.866 258.863 113.866H258.816Z" fill="white"/>
<path d="M267.907 118.955C267.427 118.955 266.964 118.921 266.501 118.835C261.426 117.96 259.609 114.7 260.038 111.852C260.415 109.347 262.404 107.683 264.632 107.992C266.055 108.181 267.153 109.261 267.444 110.703C267.684 111.989 267.187 113.19 266.158 113.757C265.952 113.877 265.712 113.791 265.592 113.602C265.472 113.396 265.558 113.156 265.747 113.036C266.604 112.538 266.775 111.578 266.621 110.857C266.467 110.016 265.815 108.987 264.512 108.798C262.506 108.524 261.118 110.222 260.861 111.955C260.518 114.22 261.821 117.171 266.638 117.994C268.987 118.389 271.833 117.583 273.53 116.021C274.353 115.266 275.313 113.98 275.159 112.127C275.108 111.475 274.799 110.874 274.302 110.445C273.805 110.016 273.188 109.828 272.536 109.879C271.645 109.948 270.993 110.754 271.062 111.663C271.113 112.247 271.61 112.676 272.193 112.641C272.536 112.607 272.896 112.367 272.896 111.972C272.896 111.749 273.085 111.561 273.308 111.561C273.53 111.561 273.719 111.749 273.719 111.972C273.719 112.761 273.102 113.413 272.262 113.482C271.233 113.568 270.324 112.796 270.239 111.749C270.119 110.394 271.13 109.193 272.467 109.073C273.325 109.004 274.182 109.279 274.833 109.845C275.502 110.411 275.896 111.2 275.982 112.075C276.119 113.791 275.468 115.369 274.079 116.639C272.502 118.08 270.153 118.938 267.89 118.938L267.907 118.955Z" fill="white"/>
<path d="M272.33 112.058C272.33 112.419 272.622 112.71 272.982 112.71C273.342 112.71 273.633 112.419 273.633 112.058C273.633 111.698 273.342 111.406 272.982 111.406C272.622 111.406 272.33 111.698 272.33 112.058Z" fill="white"/>
<path d="M265.181 113.105C265.181 113.465 265.472 113.757 265.832 113.757C266.193 113.757 266.484 113.465 266.484 113.105C266.484 112.745 266.193 112.453 265.832 112.453C265.472 112.453 265.181 112.745 265.181 113.105Z" fill="white"/>
</g>
<path d="M138 27C138 27 138.703 30.9285 140.387 32.6128C142.071 34.2971 146 35 146 35C146 35 142.071 35.7029 140.387 37.3872C138.703 39.0715 138 43 138 43C138 43 137.297 39.0715 135.613 37.3872C133.929 35.7029 130 35 130 35C130 35 133.929 34.2971 135.613 32.6128C137.297 30.9285 138 27 138 27Z" fill="#EE5D8A"/>
<defs>
<clipPath id="clip0_1371_1420">
<rect width="276" height="11" fill="white" transform="translate(0 107.955)"/>
</clipPath>
</defs>
</svg>
