<svg width="302" height="29" viewBox="0 0 302 29" fill="none" xmlns="http://www.w3.org/2000/svg">
<rect x="0.5" y="0.5" width="254" height="27.02" stroke="#D7D7D7" stroke-opacity="0.78"/>
<path d="M33.181 17.6538C32.227 17.6538 31.429 17.3328 30.787 16.6908C30.151 16.0488 29.833 15.2478 29.833 14.2878C29.833 13.3278 30.151 12.5298 30.787 11.8938C31.423 11.2458 32.221 10.9218 33.181 10.9218C34.153 10.9218 34.942 11.2728 35.548 11.9748L34.954 12.5508C34.492 11.9928 33.901 11.7138 33.181 11.7138C32.467 11.7138 31.87 11.9538 31.39 12.4338C30.916 12.9078 30.679 13.5258 30.679 14.2878C30.679 15.0498 30.916 15.6678 31.39 16.1418C31.87 16.6218 32.467 16.8618 33.181 16.8618C33.931 16.8618 34.582 16.5468 35.134 15.9168L35.737 16.5018C35.431 16.8678 35.056 17.1528 34.612 17.3568C34.168 17.5548 33.691 17.6538 33.181 17.6538ZM37.5326 11.8578V14.1258H38.8646C39.2006 14.1258 39.4856 14.0178 39.7196 13.8018C39.9536 13.5798 40.0706 13.3068 40.0706 12.9828C40.0706 12.6828 39.9596 12.4218 39.7376 12.1998C39.5216 11.9718 39.2486 11.8578 38.9186 11.8578H37.5326ZM37.5326 17.5098H36.7046V11.0658H38.9006C39.4586 11.0658 39.9326 11.2518 40.3226 11.6238C40.7186 11.9898 40.9166 12.4428 40.9166 12.9828C40.9166 13.4268 40.7696 13.8228 40.4756 14.1708C40.1876 14.5128 39.8216 14.7318 39.3776 14.8278L39.3596 14.8548L41.1686 17.4738V17.5098H40.1876L38.4506 14.8998H37.5326V17.5098ZM45.6698 11.0658V11.8578H42.7358V13.9008H45.3818V14.6748H42.7358V16.7178H45.6698V17.5098H41.9078V11.0658H45.6698ZM49.1257 12.0828L48.0727 14.9898H50.2147L49.1617 12.0828H49.1257ZM47.1637 17.5098H46.2457L48.6757 11.0658H49.6117L52.0417 17.5098H51.1237L50.5027 15.7638H47.7937L47.1637 17.5098ZM54.4045 11.8578V17.5098H53.5765V11.8578H51.7765V11.0658H56.2045V11.8578H54.4045ZM57.8969 17.5098H57.0689V11.0658H57.8969V17.5098ZM61.656 17.5098H60.792L58.524 11.0658H59.442L61.206 16.2948H61.242L63.078 11.0658H63.996L61.656 17.5098ZM68.5125 11.0658V11.8578H65.5785V13.9008H68.2245V14.6748H65.5785V16.7178H68.5125V17.5098H64.7505V11.0658H68.5125ZM73.6712 17.6538C72.9572 17.6538 72.3812 17.4198 71.9432 16.9518C71.5052 16.4898 71.2862 15.8778 71.2862 15.1158V11.0658H72.1142V15.1518C72.1142 15.6798 72.2522 16.0968 72.5282 16.4028C72.8042 16.7088 73.1852 16.8618 73.6712 16.8618C74.1572 16.8618 74.5382 16.7088 74.8142 16.4028C75.0902 16.0968 75.2282 15.6798 75.2282 15.1518V11.0658H76.0562V15.1158C76.0562 15.8958 75.8402 16.5138 75.4082 16.9698C74.9762 17.4258 74.3972 17.6538 73.6712 17.6538ZM78.0326 17.5098H77.2046V11.0658H78.0326V17.5098ZM85.2871 16.3938L85.8901 17.1858L85.2691 17.6538L84.8281 17.0688C84.3901 17.4588 83.8921 17.6538 83.3341 17.6538C82.6801 17.6538 82.1251 17.4348 81.6691 16.9968C81.2131 16.5588 80.9851 16.0188 80.9851 15.3768C80.9851 14.9988 81.0841 14.6418 81.2821 14.3058C81.4861 13.9638 81.7591 13.6878 82.1011 13.4778C81.7891 13.0758 81.6331 12.7188 81.6331 12.4068C81.6331 11.9988 81.7861 11.6508 82.0921 11.3628C82.3981 11.0688 82.7641 10.9218 83.1901 10.9218C83.5321 10.9218 83.8291 11.0208 84.0811 11.2188C84.3331 11.4108 84.5161 11.6748 84.6301 12.0108L83.9191 12.3888C83.7511 11.9388 83.5081 11.7138 83.1901 11.7138C82.9801 11.7138 82.8061 11.7768 82.6681 11.9028C82.5361 12.0288 82.4701 12.1968 82.4701 12.4068C82.4701 12.6108 82.5391 12.8028 82.6771 12.9828L84.8101 15.7728L85.3861 14.8098L86.0341 15.2058L85.2871 16.3938ZM81.7411 15.3768C81.7411 15.8088 81.8941 16.1718 82.2001 16.4658C82.5061 16.7538 82.8841 16.8978 83.3341 16.8978C83.7601 16.8978 84.1051 16.7538 84.3691 16.4658L82.5601 14.0808C82.3081 14.2188 82.1071 14.4048 81.9571 14.6388C81.8131 14.8728 81.7411 15.1188 81.7411 15.3768ZM91.4421 17.5098H90.5781L88.3101 11.0658H89.2281L90.9921 16.2948H91.0281L92.8641 11.0658H93.7821L91.4421 17.5098ZM95.3647 17.5098H94.5367V11.0658H95.3647V17.5098ZM100.642 15.7908C100.642 16.3548 100.435 16.8078 100.021 17.1498C99.6006 17.4858 99.0906 17.6538 98.4906 17.6538C97.9566 17.6538 97.4856 17.4978 97.0776 17.1858C96.6696 16.8738 96.3876 16.4478 96.2316 15.9078L97.0236 15.5838C97.0776 15.7758 97.1526 15.9498 97.2486 16.1058C97.3446 16.2618 97.4556 16.3968 97.5816 16.5108C97.7136 16.6188 97.8576 16.7058 98.0136 16.7718C98.1696 16.8318 98.3346 16.8618 98.5086 16.8618C98.8866 16.8618 99.1956 16.7658 99.4356 16.5738C99.6756 16.3758 99.7956 16.1148 99.7956 15.7908C99.7956 15.5208 99.6966 15.2898 99.4986 15.0978C99.3126 14.9118 98.9646 14.7318 98.4546 14.5578C97.9386 14.3718 97.6176 14.2458 97.4916 14.1798C96.8076 13.8318 96.4656 13.3188 96.4656 12.6408C96.4656 12.1668 96.6546 11.7618 97.0326 11.4258C97.4166 11.0898 97.8876 10.9218 98.4456 10.9218C98.9376 10.9218 99.3636 11.0478 99.7236 11.2998C100.084 11.5458 100.324 11.8548 100.444 12.2268L99.6696 12.5508C99.5976 12.3108 99.4536 12.1128 99.2376 11.9568C99.0276 11.7948 98.7696 11.7138 98.4636 11.7138C98.1396 11.7138 97.8666 11.8038 97.6446 11.9838C97.4226 12.1518 97.3116 12.3708 97.3116 12.6408C97.3116 12.8628 97.3986 13.0548 97.5726 13.2168C97.7646 13.3788 98.1816 13.5708 98.8236 13.7928C99.4776 14.0148 99.9426 14.2878 100.219 14.6118C100.501 14.9298 100.642 15.3228 100.642 15.7908ZM103.879 17.6538C103.165 17.6538 102.589 17.4198 102.151 16.9518C101.713 16.4898 101.494 15.8778 101.494 15.1158V11.0658H102.322V15.1518C102.322 15.6798 102.46 16.0968 102.736 16.4028C103.012 16.7088 103.393 16.8618 103.879 16.8618C104.365 16.8618 104.746 16.7088 105.022 16.4028C105.298 16.0968 105.436 15.6798 105.436 15.1518V11.0658H106.264V15.1158C106.264 15.8958 106.048 16.5138 105.616 16.9698C105.184 17.4258 104.605 17.6538 103.879 17.6538ZM109.753 12.0828L108.7 14.9898H110.842L109.789 12.0828H109.753ZM107.791 17.5098H106.873L109.303 11.0658H110.239L112.669 17.5098H111.751L111.13 15.7638H108.421L107.791 17.5098ZM117.042 17.5098H113.424V11.0658H114.252V16.7178H117.042V17.5098ZM119.884 17.5098V11.0658H121.855C122.839 11.0658 123.628 11.3628 124.222 11.9568C124.822 12.5508 125.122 13.3278 125.122 14.2878C125.122 15.2538 124.822 16.0338 124.222 16.6278C123.628 17.2158 122.839 17.5098 121.855 17.5098H119.884ZM120.712 11.8578V16.7178H121.855C122.605 16.7178 123.196 16.5048 123.628 16.0788C124.06 15.6468 124.276 15.0498 124.276 14.2878C124.276 13.5318 124.06 12.9378 123.628 12.5058C123.196 12.0738 122.605 11.8578 121.855 11.8578H120.712ZM129.869 11.0658V11.8578H126.935V13.9008H129.581V14.6748H126.935V16.7178H129.869V17.5098H126.107V11.0658H129.869ZM134.963 15.7908C134.963 16.3548 134.756 16.8078 134.342 17.1498C133.922 17.4858 133.412 17.6538 132.812 17.6538C132.278 17.6538 131.807 17.4978 131.399 17.1858C130.991 16.8738 130.709 16.4478 130.553 15.9078L131.345 15.5838C131.399 15.7758 131.474 15.9498 131.57 16.1058C131.666 16.2618 131.777 16.3968 131.903 16.5108C132.035 16.6188 132.179 16.7058 132.335 16.7718C132.491 16.8318 132.656 16.8618 132.83 16.8618C133.208 16.8618 133.517 16.7658 133.757 16.5738C133.997 16.3758 134.117 16.1148 134.117 15.7908C134.117 15.5208 134.018 15.2898 133.82 15.0978C133.634 14.9118 133.286 14.7318 132.776 14.5578C132.26 14.3718 131.939 14.2458 131.813 14.1798C131.129 13.8318 130.787 13.3188 130.787 12.6408C130.787 12.1668 130.976 11.7618 131.354 11.4258C131.738 11.0898 132.209 10.9218 132.767 10.9218C133.259 10.9218 133.685 11.0478 134.045 11.2998C134.405 11.5458 134.645 11.8548 134.765 12.2268L133.991 12.5508C133.919 12.3108 133.775 12.1128 133.559 11.9568C133.349 11.7948 133.091 11.7138 132.785 11.7138C132.461 11.7138 132.188 11.8038 131.966 11.9838C131.744 12.1518 131.633 12.3708 131.633 12.6408C131.633 12.8628 131.72 13.0548 131.894 13.2168C132.086 13.3788 132.503 13.5708 133.145 13.7928C133.799 14.0148 134.264 14.2878 134.54 14.6118C134.822 14.9298 134.963 15.3228 134.963 15.7908ZM136.788 17.5098H135.96V11.0658H136.788V17.5098ZM144.2 14.5488C144.2 15.4488 143.933 16.1658 143.399 16.6998C142.799 17.3358 142.01 17.6538 141.032 17.6538C140.096 17.6538 139.304 17.3298 138.656 16.6818C138.008 16.0338 137.684 15.2358 137.684 14.2878C137.684 13.3398 138.008 12.5418 138.656 11.8938C139.304 11.2458 140.096 10.9218 141.032 10.9218C141.506 10.9218 141.953 11.0058 142.373 11.1738C142.793 11.3418 143.138 11.5788 143.408 11.8848L142.814 12.4788C142.616 12.2388 142.358 12.0528 142.04 11.9208C141.728 11.7828 141.392 11.7138 141.032 11.7138C140.33 11.7138 139.736 11.9568 139.25 12.4428C138.77 12.9348 138.53 13.5498 138.53 14.2878C138.53 15.0258 138.77 15.6408 139.25 16.1328C139.736 16.6188 140.33 16.8618 141.032 16.8618C141.674 16.8618 142.208 16.6818 142.634 16.3218C143.06 15.9618 143.306 15.4668 143.372 14.8368H141.032V14.0628H144.155C144.185 14.2308 144.2 14.3928 144.2 14.5488ZM146.034 17.5098H145.206V11.0658H146.214L149.346 16.0788H149.382L149.346 14.8368V11.0658H150.174V17.5098H149.31L146.034 12.2538H145.998L146.034 13.4958V17.5098ZM155.234 11.0658V11.8578H152.3V13.9008H154.946V14.6748H152.3V16.7178H155.234V17.5098H151.472V11.0658H155.234ZM157.178 11.8578V14.1258H158.51C158.846 14.1258 159.131 14.0178 159.365 13.8018C159.599 13.5798 159.716 13.3068 159.716 12.9828C159.716 12.6828 159.605 12.4218 159.383 12.1998C159.167 11.9718 158.894 11.8578 158.564 11.8578H157.178ZM157.178 17.5098H156.35V11.0658H158.546C159.104 11.0658 159.578 11.2518 159.968 11.6238C160.364 11.9898 160.562 12.4428 160.562 12.9828C160.562 13.4268 160.415 13.8228 160.121 14.1708C159.833 14.5128 159.467 14.7318 159.023 14.8278L159.005 14.8548L160.814 17.4738V17.5098H159.833L158.096 14.8998H157.178V17.5098ZM163.531 17.5098V11.0658H165.862C166.372 11.0658 166.81 11.2338 167.176 11.5698C167.542 11.8998 167.725 12.3168 167.725 12.8208C167.725 13.4568 167.434 13.9038 166.852 14.1618V14.1978C167.182 14.3058 167.446 14.4948 167.644 14.7648C167.842 15.0288 167.941 15.3318 167.941 15.6738C167.941 16.2018 167.749 16.6398 167.365 16.9878C166.993 17.3358 166.534 17.5098 165.988 17.5098H163.531ZM164.359 11.8578V13.8288H165.862C166.156 13.8288 166.402 13.7298 166.6 13.5318C166.798 13.3278 166.897 13.0968 166.897 12.8388C166.897 12.5868 166.801 12.3588 166.609 12.1548C166.417 11.9568 166.18 11.8578 165.898 11.8578H164.359ZM164.359 14.6028V16.7178H166.024C166.324 16.7178 166.579 16.6128 166.789 16.4028C166.993 16.1928 167.095 15.9438 167.095 15.6558C167.095 15.3738 166.99 15.1278 166.78 14.9178C166.57 14.7078 166.306 14.6028 165.988 14.6028H164.359ZM171.127 12.0828L170.074 14.9898H172.216L171.163 12.0828H171.127ZM169.165 17.5098H168.247L170.677 11.0658H171.613L174.043 17.5098H173.125L172.504 15.7638H169.795L169.165 17.5098ZM178.776 15.7908C178.776 16.3548 178.569 16.8078 178.155 17.1498C177.735 17.4858 177.225 17.6538 176.625 17.6538C176.091 17.6538 175.62 17.4978 175.212 17.1858C174.804 16.8738 174.522 16.4478 174.366 15.9078L175.158 15.5838C175.212 15.7758 175.287 15.9498 175.383 16.1058C175.479 16.2618 175.59 16.3968 175.716 16.5108C175.848 16.6188 175.992 16.7058 176.148 16.7718C176.304 16.8318 176.469 16.8618 176.643 16.8618C177.021 16.8618 177.33 16.7658 177.57 16.5738C177.81 16.3758 177.93 16.1148 177.93 15.7908C177.93 15.5208 177.831 15.2898 177.633 15.0978C177.447 14.9118 177.099 14.7318 176.589 14.5578C176.073 14.3718 175.752 14.2458 175.626 14.1798C174.942 13.8318 174.6 13.3188 174.6 12.6408C174.6 12.1668 174.789 11.7618 175.167 11.4258C175.551 11.0898 176.022 10.9218 176.58 10.9218C177.072 10.9218 177.498 11.0478 177.858 11.2998C178.218 11.5458 178.458 11.8548 178.578 12.2268L177.804 12.5508C177.732 12.3108 177.588 12.1128 177.372 11.9568C177.162 11.7948 176.904 11.7138 176.598 11.7138C176.274 11.7138 176.001 11.8038 175.779 11.9838C175.557 12.1518 175.446 12.3708 175.446 12.6408C175.446 12.8628 175.533 13.0548 175.707 13.2168C175.899 13.3788 176.316 13.5708 176.958 13.7928C177.612 14.0148 178.077 14.2878 178.353 14.6118C178.635 14.9298 178.776 15.3228 178.776 15.7908ZM183.535 11.0658V11.8578H180.601V13.9008H183.247V14.6748H180.601V16.7178H183.535V17.5098H179.773V11.0658H183.535ZM184.651 17.5098V11.0658H186.622C187.606 11.0658 188.395 11.3628 188.989 11.9568C189.589 12.5508 189.889 13.3278 189.889 14.2878C189.889 15.2538 189.589 16.0338 188.989 16.6278C188.395 17.2158 187.606 17.5098 186.622 17.5098H184.651ZM185.479 11.8578V16.7178H186.622C187.372 16.7178 187.963 16.5048 188.395 16.0788C188.827 15.6468 189.043 15.0498 189.043 14.2878C189.043 13.5318 188.827 12.9378 188.395 12.5058C187.963 12.0738 187.372 11.8578 186.622 11.8578H185.479ZM193.679 17.5098H192.851V11.0658H193.679V17.5098ZM195.806 17.5098H194.978V11.0658H195.986L199.118 16.0788H199.154L199.118 14.8368V11.0658H199.946V17.5098H199.082L195.806 12.2538H195.77L195.806 13.4958V17.5098ZM204.05 17.5098H203.222V11.0658H204.05V17.5098ZM206.177 17.5098H205.349V11.0658H206.357L209.489 16.0788H209.525L209.489 14.8368V11.0658H210.317V17.5098H209.453L206.177 12.2538H206.141L206.177 13.4958V17.5098ZM211.616 17.5098V11.0658H213.587C214.571 11.0658 215.36 11.3628 215.954 11.9568C216.554 12.5508 216.854 13.3278 216.854 14.2878C216.854 15.2538 216.554 16.0338 215.954 16.6278C215.36 17.2158 214.571 17.5098 213.587 17.5098H211.616ZM212.444 11.8578V16.7178H213.587C214.337 16.7178 214.928 16.5048 215.36 16.0788C215.792 15.6468 216.008 15.0498 216.008 14.2878C216.008 13.5318 215.792 12.9378 215.36 12.5058C214.928 12.0738 214.337 11.8578 213.587 11.8578H212.444ZM218.666 17.5098H217.838V11.0658H218.666V17.5098ZM222.305 12.0828L221.252 14.9898H223.394L222.341 12.0828H222.305ZM220.343 17.5098H219.425L221.855 11.0658H222.791L225.221 17.5098H224.303L223.682 15.7638H220.973L220.343 17.5098Z" fill="#280822"/>
<rect x="254.5" y="0.5" width="47" height="27.02" stroke="#D7D7D7" stroke-opacity="0.78"/>
<path d="M277.284 16.7178V17.5098H273.36V16.6818L274.953 15.0708C275.487 14.5248 275.856 14.1168 276.06 13.8468C276.264 13.5708 276.366 13.2828 276.366 12.9828C276.366 12.7128 276.261 12.4818 276.051 12.2898C275.841 12.0978 275.571 12.0018 275.241 12.0018C274.959 12.0018 274.716 12.0858 274.512 12.2538C274.308 12.4218 274.176 12.6258 274.116 12.8658L273.36 12.5598C273.48 12.1818 273.711 11.8638 274.053 11.6058C274.395 11.3418 274.797 11.2098 275.259 11.2098C275.817 11.2098 276.282 11.3808 276.654 11.7228C277.026 12.0648 277.212 12.4848 277.212 12.9828C277.212 13.5768 276.885 14.2188 276.231 14.9088L274.431 16.7178H277.284ZM282.239 15.5838C282.239 16.1718 282.035 16.6638 281.627 17.0598C281.219 17.4558 280.715 17.6538 280.115 17.6538C279.635 17.6538 279.2 17.5038 278.81 17.2038C278.42 16.9038 278.162 16.4988 278.036 15.9888L278.774 15.6918C278.864 16.0518 279.026 16.3368 279.26 16.5468C279.5 16.7568 279.779 16.8618 280.097 16.8618C280.481 16.8618 280.793 16.7448 281.033 16.5108C281.279 16.2708 281.402 15.9648 281.402 15.5928C281.402 15.2148 281.279 14.9058 281.033 14.6658C280.793 14.4258 280.484 14.3058 280.106 14.3058C279.668 14.3058 279.323 14.4828 279.071 14.8368L278.234 14.4768L278.63 11.3538H281.861V12.1458H279.323L279.098 13.9098L279.134 13.9188C279.44 13.6728 279.812 13.5498 280.25 13.5498C280.802 13.5498 281.27 13.7448 281.654 14.1348C282.044 14.5248 282.239 15.0078 282.239 15.5838Z" fill="#280822"/>
</svg>
