<svg width="262" height="119" viewBox="0 0 262 119" fill="none" xmlns="http://www.w3.org/2000/svg">
<rect x="0.5" y="0.5" width="213.016" height="47.0159" stroke="#E8E8E8"/>
<path d="M21.577 28.7061C20.2633 28.7061 19.1643 28.2641 18.2803 27.38C17.4044 26.4959 16.9665 25.3928 16.9665 24.0708C16.9665 22.7488 17.4044 21.6499 18.2803 20.7741C19.1561 19.8817 20.255 19.4355 21.577 19.4355C22.9155 19.4355 24.0021 19.9189 24.8366 20.8856L24.0186 21.6788C23.3824 20.9104 22.5685 20.5262 21.577 20.5262C20.5938 20.5262 19.7716 20.8567 19.1106 21.5177C18.4579 22.1704 18.1315 23.0215 18.1315 24.0708C18.1315 25.1202 18.4579 25.9712 19.1106 26.624C19.7716 27.285 20.5938 27.6155 21.577 27.6155C22.6098 27.6155 23.5063 27.1817 24.2665 26.3141L25.0969 27.1197C24.6755 27.6237 24.1591 28.0162 23.5476 28.2971C22.9362 28.5698 22.2793 28.7061 21.577 28.7061ZM27.5696 20.7245V23.8477H29.4039C29.8666 23.8477 30.2591 23.699 30.5813 23.4016C30.9036 23.0958 31.0647 22.7199 31.0647 22.2737C31.0647 21.8606 30.9118 21.5012 30.6061 21.1955C30.3086 20.8815 29.9327 20.7245 29.4783 20.7245H27.5696ZM27.5696 28.5078H26.4294V19.6338H29.4535C30.2219 19.6338 30.8746 19.89 31.4117 20.4023C31.957 20.9063 32.2297 21.5301 32.2297 22.2737C32.2297 22.8851 32.0273 23.4305 31.6224 23.9097C31.2258 24.3807 30.7218 24.6823 30.1103 24.8145L30.0856 24.8516L32.5767 28.4582V28.5078H31.2258L28.8338 24.9136H27.5696V28.5078ZM38.7752 19.6338V20.7245H34.7348V23.5379H38.3786V24.6038H34.7348V27.4172H38.7752V28.5078H33.5946V19.6338H38.7752ZM43.5343 21.0343L42.0842 25.0375H45.034L43.5839 21.0343H43.5343ZM40.8325 28.5078H39.5683L42.9146 19.6338H44.2036L47.5499 28.5078H46.2857L45.4306 26.1034H41.7L40.8325 28.5078ZM50.8038 20.7245V28.5078H49.6635V20.7245H47.1848V19.6338H53.2825V20.7245H50.8038ZM55.613 28.5078H54.4728V19.6338H55.613V28.5078ZM60.7897 28.5078H59.5999L56.4766 19.6338H57.7408L60.17 26.8346H60.2196L62.7479 19.6338H64.0121L60.7897 28.5078ZM70.2318 19.6338V20.7245H66.1914V23.5379H69.8352V24.6038H66.1914V27.4172H70.2318V28.5078H65.0511V19.6338H70.2318ZM77.3357 28.7061C76.3525 28.7061 75.5593 28.3839 74.9561 27.7394C74.353 27.1032 74.0514 26.2604 74.0514 25.2111V19.6338H75.1916V25.2606C75.1916 25.9877 75.3816 26.562 75.7617 26.9834C76.1418 27.4048 76.6665 27.6155 77.3357 27.6155C78.005 27.6155 78.5297 27.4048 78.9098 26.9834C79.2898 26.562 79.4799 25.9877 79.4799 25.2606V19.6338H80.6201V25.2111C80.6201 26.2852 80.3226 27.1362 79.7277 27.7642C79.1328 28.3921 78.3355 28.7061 77.3357 28.7061ZM83.3418 28.5078H82.2016V19.6338H83.3418V28.5078ZM93.3319 26.971L94.1623 28.0616L93.3071 28.7061L92.6998 27.9005C92.0966 28.4376 91.4109 28.7061 90.6424 28.7061C89.7418 28.7061 88.9775 28.4045 88.3496 27.8014C87.7216 27.1982 87.4076 26.4546 87.4076 25.5705C87.4076 25.0499 87.544 24.5583 87.8166 24.0956C88.0976 23.6246 88.4735 23.2446 88.9445 22.9554C88.5148 22.4018 88.3 21.9102 88.3 21.4805C88.3 20.9187 88.5107 20.4394 88.9321 20.0428C89.3535 19.638 89.8575 19.4355 90.4441 19.4355C90.9151 19.4355 91.3241 19.5719 91.6711 19.8445C92.0182 20.1089 92.2702 20.4725 92.4271 20.9352L91.448 21.4557C91.2167 20.836 90.8821 20.5262 90.4441 20.5262C90.1549 20.5262 89.9153 20.6129 89.7253 20.7865C89.5435 20.96 89.4526 21.1913 89.4526 21.4805C89.4526 21.7614 89.5476 22.0258 89.7377 22.2737L92.675 26.1158L93.4682 24.7897L94.3606 25.335L93.3319 26.971ZM88.4487 25.5705C88.4487 26.1654 88.6594 26.6653 89.0808 27.0701C89.5022 27.4667 90.0227 27.665 90.6424 27.665C91.2291 27.665 91.7042 27.4667 92.0677 27.0701L89.5766 23.7858C89.2295 23.9758 88.9527 24.2319 88.7462 24.5542C88.5479 24.8764 88.4487 25.2152 88.4487 25.5705ZM101.808 28.5078H100.618L97.4949 19.6338H98.759L101.188 26.8346H101.238L103.766 19.6338H105.03L101.808 28.5078ZM107.21 28.5078H106.069V19.6338H107.21V28.5078ZM114.476 26.1406C114.476 26.9173 114.191 27.5411 113.621 28.0121C113.043 28.4748 112.341 28.7061 111.514 28.7061C110.779 28.7061 110.13 28.4913 109.568 28.0616C109.007 27.632 108.618 27.0453 108.403 26.3017L109.494 25.8555C109.568 26.1199 109.672 26.3596 109.804 26.5744C109.936 26.7892 110.089 26.9751 110.263 27.1321C110.444 27.2808 110.643 27.4006 110.857 27.4915C111.072 27.5741 111.299 27.6155 111.539 27.6155C112.06 27.6155 112.485 27.4833 112.816 27.2189C113.146 26.9462 113.311 26.5868 113.311 26.1406C113.311 25.7688 113.175 25.4507 112.902 25.1863C112.646 24.9301 112.167 24.6823 111.465 24.4426C110.754 24.1865 110.312 24.013 110.139 23.9221C109.197 23.4429 108.726 22.7364 108.726 21.8028C108.726 21.15 108.986 20.5923 109.507 20.1296C110.035 19.6669 110.684 19.4355 111.452 19.4355C112.13 19.4355 112.717 19.609 113.212 19.9561C113.708 20.2948 114.039 20.7204 114.204 21.2326L113.138 21.6788C113.039 21.3483 112.84 21.0757 112.543 20.8608C112.254 20.6377 111.899 20.5262 111.477 20.5262C111.031 20.5262 110.655 20.6501 110.349 20.898C110.044 21.1294 109.891 21.4309 109.891 21.8028C109.891 22.1085 110.011 22.3729 110.25 22.596C110.515 22.819 111.089 23.0835 111.973 23.3892C112.874 23.6949 113.514 24.0708 113.894 24.517C114.282 24.9549 114.476 25.4961 114.476 26.1406ZM118.935 28.7061C117.952 28.7061 117.158 28.3839 116.555 27.7394C115.952 27.1032 115.651 26.2604 115.651 25.2111V19.6338H116.791V25.2606C116.791 25.9877 116.981 26.562 117.361 26.9834C117.741 27.4048 118.266 27.6155 118.935 27.6155C119.604 27.6155 120.129 27.4048 120.509 26.9834C120.889 26.562 121.079 25.9877 121.079 25.2606V19.6338H122.219V25.2111C122.219 26.2852 121.922 27.1362 121.327 27.7642C120.732 28.3921 119.935 28.7061 118.935 28.7061ZM127.023 21.0343L125.573 25.0375H128.523L127.073 21.0343H127.023ZM124.321 28.5078H123.057L126.403 19.6338H127.692L131.039 28.5078H129.775L128.919 26.1034H125.189L124.321 28.5078ZM137.062 28.5078H132.079V19.6338H133.22V27.4172H137.062V28.5078ZM140.975 28.5078V19.6338H143.69C145.045 19.6338 146.131 20.0428 146.949 20.8608C147.775 21.6788 148.189 22.7488 148.189 24.0708C148.189 25.4011 147.775 26.4752 146.949 27.2932C146.131 28.1029 145.045 28.5078 143.69 28.5078H140.975ZM142.116 20.7245V27.4172H143.69C144.722 27.4172 145.536 27.1238 146.131 26.5372C146.726 25.9423 147.024 25.1202 147.024 24.0708C147.024 23.0297 146.726 22.2118 146.131 21.6168C145.536 21.0219 144.722 20.7245 143.69 20.7245H142.116ZM154.725 19.6338V20.7245H150.685V23.5379H154.329V24.6038H150.685V27.4172H154.725V28.5078H149.545V19.6338H154.725ZM161.74 26.1406C161.74 26.9173 161.455 27.5411 160.885 28.0121C160.306 28.4748 159.604 28.7061 158.778 28.7061C158.042 28.7061 157.394 28.4913 156.832 28.0616C156.27 27.632 155.882 27.0453 155.667 26.3017L156.758 25.8555C156.832 26.1199 156.935 26.3596 157.068 26.5744C157.2 26.7892 157.353 26.9751 157.526 27.1321C157.708 27.2808 157.906 27.4006 158.121 27.4915C158.336 27.5741 158.563 27.6155 158.803 27.6155C159.323 27.6155 159.749 27.4833 160.079 27.2189C160.41 26.9462 160.575 26.5868 160.575 26.1406C160.575 25.7688 160.439 25.4507 160.166 25.1863C159.91 24.9301 159.431 24.6823 158.728 24.4426C158.018 24.1865 157.576 24.013 157.402 23.9221C156.46 23.4429 155.989 22.7364 155.989 21.8028C155.989 21.15 156.25 20.5923 156.77 20.1296C157.299 19.6669 157.947 19.4355 158.716 19.4355C159.393 19.4355 159.98 19.609 160.476 19.9561C160.972 20.2948 161.302 20.7204 161.467 21.2326L160.401 21.6788C160.302 21.3483 160.104 21.0757 159.807 20.8608C159.517 20.6377 159.162 20.5262 158.741 20.5262C158.294 20.5262 157.919 20.6501 157.613 20.898C157.307 21.1294 157.154 21.4309 157.154 21.8028C157.154 22.1085 157.274 22.3729 157.514 22.596C157.778 22.819 158.352 23.0835 159.236 23.3892C160.137 23.6949 160.777 24.0708 161.157 24.517C161.546 24.9549 161.74 25.4961 161.74 26.1406ZM164.253 28.5078H163.112V19.6338H164.253V28.5078ZM174.46 24.4302C174.46 25.6696 174.092 26.657 173.357 27.3924C172.53 28.2682 171.444 28.7061 170.097 28.7061C168.808 28.7061 167.717 28.2599 166.825 27.3676C165.933 26.4752 165.487 25.3763 165.487 24.0708C165.487 22.7653 165.933 21.6664 166.825 20.7741C167.717 19.8817 168.808 19.4355 170.097 19.4355C170.75 19.4355 171.365 19.5512 171.944 19.7826C172.522 20.0139 172.997 20.3403 173.369 20.7617L172.551 21.5797C172.278 21.2492 171.923 20.993 171.485 20.8112C171.056 20.6212 170.593 20.5262 170.097 20.5262C169.13 20.5262 168.312 20.8608 167.643 21.5301C166.982 22.2076 166.652 23.0545 166.652 24.0708C166.652 25.0871 166.982 25.934 167.643 26.6116C168.312 27.2808 169.13 27.6155 170.097 27.6155C170.981 27.6155 171.717 27.3676 172.303 26.8718C172.89 26.3761 173.229 25.6944 173.319 24.8268H170.097V23.761H174.398C174.439 23.9923 174.46 24.2154 174.46 24.4302ZM176.985 28.5078H175.845V19.6338H177.233L181.546 26.5372H181.596L181.546 24.8268V19.6338H182.687V28.5078H181.497L176.985 21.2698H176.936L176.985 22.9802V28.5078ZM189.655 19.6338V20.7245H185.615V23.5379H189.259V24.6038H185.615V27.4172H189.655V28.5078H184.475V19.6338H189.655ZM192.332 20.7245V23.8477H194.167C194.629 23.8477 195.022 23.699 195.344 23.4016C195.666 23.0958 195.827 22.7199 195.827 22.2737C195.827 21.8606 195.675 21.5012 195.369 21.1955C195.071 20.8815 194.695 20.7245 194.241 20.7245H192.332ZM192.332 28.5078H191.192V19.6338H194.216C194.985 19.6338 195.637 19.89 196.174 20.4023C196.72 20.9063 196.992 21.5301 196.992 22.2737C196.992 22.8851 196.79 23.4305 196.385 23.9097C195.989 24.3807 195.485 24.6823 194.873 24.8145L194.848 24.8516L197.339 28.4582V28.5078H195.989L193.597 24.9136H192.332V28.5078Z" fill="black"/>
<rect x="213.516" y="0.5" width="47" height="47.0329" stroke="#E8E8E8"/>
<path d="M237.043 18.6562C239.97 18.6563 242.6 19.2902 244.483 20.2959C246.384 21.3108 247.432 22.6453 247.432 24.0166C247.431 25.3878 246.384 26.7224 244.483 27.7373C242.6 28.743 239.97 29.3769 237.043 29.377C234.116 29.377 231.485 28.743 229.601 27.7373C227.701 26.7224 226.653 25.3878 226.653 24.0166C226.653 22.6453 227.7 21.3108 229.601 20.2959C231.485 19.2901 234.116 18.6562 237.043 18.6562Z" stroke="black" stroke-width="0.8"/>
<path d="M244.636 24.0166C244.636 25.4461 243.833 26.7771 242.461 27.7656C241.09 28.7537 239.175 29.3769 237.042 29.377C234.91 29.377 232.995 28.7537 231.623 27.7656C230.252 26.7771 229.448 25.4461 229.448 24.0166C229.448 22.587 230.252 21.2561 231.623 20.2676C232.995 19.2794 234.909 18.6562 237.042 18.6562C239.175 18.6563 241.09 19.2794 242.461 20.2676C243.833 21.2561 244.636 22.587 244.636 24.0166Z" stroke="black" stroke-width="0.8"/>
<path d="M240.796 24.0166C240.796 25.5325 240.352 26.8884 239.655 27.8555C238.957 28.8231 238.028 29.377 237.042 29.377C236.056 29.3768 235.127 28.823 234.43 27.8555C233.732 26.8884 233.288 25.5326 233.288 24.0166C233.288 22.5005 233.732 21.1439 234.43 20.1768C235.127 19.2094 236.056 18.6564 237.042 18.6562C238.028 18.6562 238.957 19.2092 239.655 20.1768C240.353 21.1439 240.796 22.5005 240.796 24.0166Z" stroke="black" stroke-width="0.8"/>
<line x1="221.099" y1="23.6166" x2="252.933" y2="23.6166" stroke="black" stroke-width="0.8"/>
<rect x="0.5" y="117.549" width="70.0159" height="47" transform="rotate(-90 0.5 117.549)" stroke="#E8E8E8"/>
<path d="M28.5 100.649L19.626 100.649L19.626 97.9344C19.626 96.5794 20.035 95.4928 20.853 94.6748C21.671 93.8486 22.741 93.4355 24.063 93.4355C25.3933 93.4355 26.4674 93.8486 27.2854 94.6748C28.0951 95.4928 28.5 96.5794 28.5 97.9344L28.5 100.649ZM20.7167 99.5084L27.4093 99.5084L27.4093 97.9344C27.4093 96.9016 27.116 96.0877 26.5294 95.4928C25.9345 94.8979 25.1124 94.6005 24.063 94.6005C23.0219 94.6005 22.2039 94.8979 21.609 95.4928C21.0141 96.0877 20.7167 96.9016 20.7167 97.9344L20.7167 99.5084ZM19.626 86.8989L20.7167 86.8989L20.7167 90.9393L23.5301 90.9393L23.5301 87.2955L24.5959 87.2955L24.5959 90.9393L27.4093 90.9393L27.4093 86.8989L28.5 86.8989L28.5 92.0795L19.626 92.0795L19.626 86.8989ZM28.5 80.3798L28.5 85.3621L19.626 85.3621L19.626 84.2219L27.4093 84.2219L27.4093 80.3798L28.5 80.3798ZM27.4093 71.4591L28.5 71.4591L28.5 76.8628L27.3598 76.8628L25.1413 74.6691C24.3894 73.9337 23.8275 73.4256 23.4557 73.1446C23.0756 72.8637 22.679 72.7233 22.2659 72.7233C21.8941 72.7233 21.576 72.8678 21.3116 73.157C21.0472 73.4462 20.915 73.818 20.915 74.2725C20.915 74.6608 21.0307 74.9955 21.262 75.2764C21.4934 75.5573 21.7743 75.7391 22.1048 75.8217L21.6834 76.8628C21.1629 76.6975 20.7249 76.3794 20.3697 75.9085C20.0061 75.4375 19.8243 74.8839 19.8243 74.2477C19.8243 73.4793 20.0598 72.8389 20.5308 72.3267C21.0017 71.8144 21.5801 71.5582 22.2659 71.5582C23.0839 71.5582 23.968 72.0085 24.9182 72.9092L27.4093 75.3879L27.4093 71.4591ZM25.8477 64.6359C26.6575 64.6359 27.335 64.9168 27.8803 65.4787C28.4256 66.0405 28.6983 66.7346 28.6983 67.5608C28.6983 68.2218 28.4917 68.8209 28.0786 69.3579C27.6655 69.895 27.1078 70.2503 26.4054 70.4238L25.9964 69.4075C26.4922 69.2836 26.8847 69.0605 27.1739 68.7383C27.463 68.4078 27.6076 68.0235 27.6076 67.5856C27.6076 67.0568 27.4465 66.6272 27.1243 66.2967C26.7938 65.9579 26.3724 65.7885 25.8601 65.7885C25.3396 65.7885 24.9141 65.9579 24.5836 66.2967C24.253 66.6272 24.0878 67.0527 24.0878 67.5732C24.0878 68.1764 24.3315 68.6515 24.819 68.9985L24.3233 70.1511L20.0226 69.6058L20.0226 65.1564L21.1133 65.1564L21.1133 68.6515L23.5425 68.9613L23.5549 68.9118C23.2161 68.4904 23.0467 67.9781 23.0467 67.3749C23.0467 66.6148 23.3153 65.9703 23.8523 65.4415C24.3894 64.9044 25.0545 64.6359 25.8477 64.6359Z" fill="black"/>
<rect x="47.5" y="47.5332" width="213" height="70" stroke="#E8E8E8"/>
<path d="M69.4941 70.6592H70.969V70.7088L67.6723 74.5137L71.1921 79.4836V79.5332H69.7916L66.9038 75.3937L65.5405 76.9677V79.5332H64.4003V70.6592H65.5405V75.2325H65.5901L69.4941 70.6592ZM77.2907 70.6592V71.7499H73.2503V74.5633H76.8941V75.6291H73.2503V78.4425H77.2907V79.5332H72.1101V70.6592H77.2907ZM84.0081 70.6592V71.7499H79.9677V74.5633H83.6115V75.6291H79.9677V78.4425H84.0081V79.5332H78.8275V70.6592H84.0081ZM86.6851 75.939V79.5332H85.5448V70.6592H88.5689C89.3373 70.6592 89.9901 70.9154 90.5271 71.4276C91.0725 71.9399 91.3451 72.5637 91.3451 73.2991C91.3451 74.051 91.0725 74.679 90.5271 75.183C89.9983 75.687 89.3456 75.939 88.5689 75.939H86.6851ZM86.6851 71.7499V74.8483H88.5937C89.0481 74.8483 89.4241 74.6955 89.7215 74.3898C90.0273 74.0841 90.1801 73.7205 90.1801 73.2991C90.1801 72.886 90.0273 72.5266 89.7215 72.2208C89.4241 71.9069 89.0481 71.7499 88.5937 71.7499H86.6851ZM93.6808 79.5332H92.5406V70.6592H93.6808V79.5332ZM96.6098 79.5332H95.4696V70.6592H96.8577L101.171 77.5626H101.22L101.171 75.8522V70.6592H102.311V79.5332H101.121L96.6098 72.2952H96.5602L96.6098 74.0056V79.5332ZM112.518 75.4556C112.518 76.695 112.15 77.6824 111.415 78.4178C110.588 79.2936 109.502 79.7315 108.155 79.7315C106.866 79.7315 105.775 79.2853 104.883 78.393C103.991 77.5006 103.544 76.4017 103.544 75.0962C103.544 73.7907 103.991 72.6918 104.883 71.7995C105.775 70.9071 106.866 70.4609 108.155 70.4609C108.808 70.4609 109.423 70.5766 110.002 70.808C110.58 71.0393 111.055 71.3657 111.427 71.7871L110.609 72.6051C110.336 72.2746 109.981 72.0184 109.543 71.8366C109.113 71.6466 108.651 71.5516 108.155 71.5516C107.188 71.5516 106.37 71.8862 105.701 72.5555C105.04 73.233 104.709 74.0799 104.709 75.0962C104.709 76.1125 105.04 76.9594 105.701 77.6369C106.37 78.3062 107.188 78.6408 108.155 78.6408C109.039 78.6408 109.774 78.393 110.361 77.8972C110.948 77.4015 111.286 76.7198 111.377 75.8522H108.155V74.7864H112.456C112.497 75.0177 112.518 75.2408 112.518 75.4556ZM125.277 70.6592H126.466L124.099 79.5332H122.934L121.026 73.6833H120.976L119.067 79.5332H117.902L115.436 70.6592H116.626L118.497 77.6369H118.547L120.468 71.849H121.534L123.455 77.6369H123.504L125.277 70.6592ZM132.736 70.6592V71.7499H128.696V74.5633H132.34V75.6291H128.696V78.4425H132.736V79.5332H127.556V70.6592H132.736ZM134.273 79.5332V70.6592H137.483C138.185 70.6592 138.788 70.8906 139.292 71.3533C139.796 71.8077 140.048 72.382 140.048 73.076C140.048 73.9519 139.648 74.5674 138.846 74.9227V74.9723C139.301 75.121 139.664 75.3813 139.937 75.7531C140.21 76.1166 140.346 76.5339 140.346 77.0049C140.346 77.732 140.081 78.3351 139.553 78.8144C139.04 79.2936 138.408 79.5332 137.656 79.5332H134.273ZM135.413 71.7499V74.4641H137.483C137.888 74.4641 138.226 74.3278 138.499 74.0551C138.772 73.7742 138.908 73.4561 138.908 73.1008C138.908 72.7538 138.776 72.4398 138.512 72.1589C138.247 71.8862 137.921 71.7499 137.532 71.7499H135.413ZM135.413 75.53V78.4425H137.706C138.119 78.4425 138.47 78.298 138.759 78.0088C139.04 77.7196 139.181 77.3767 139.181 76.9801C139.181 76.5917 139.036 76.253 138.747 75.9638C138.458 75.6746 138.094 75.53 137.656 75.53H135.413ZM145.495 79.5332H144.355V70.6592H145.495V79.5332ZM148.424 79.5332H147.284V70.6592H148.672L152.985 77.5626H153.035L152.985 75.8522V70.6592H154.125V79.5332H152.936L148.424 72.2952H148.375L148.424 74.0056V79.5332ZM158.938 71.7499V79.5332H157.798V71.7499H155.319V70.6592H161.416V71.7499H158.938ZM167.787 70.6592V71.7499H163.747V74.5633H167.391V75.6291H163.747V78.4425H167.787V79.5332H162.607V70.6592H167.787ZM170.464 71.7499V74.8731H172.299C172.761 74.8731 173.154 74.7244 173.476 74.4269C173.798 74.1212 173.959 73.7453 173.959 73.2991C173.959 72.886 173.807 72.5266 173.501 72.2208C173.203 71.9069 172.827 71.7499 172.373 71.7499H170.464ZM170.464 79.5332H169.324V70.6592H172.348C173.117 70.6592 173.769 70.9154 174.306 71.4276C174.852 71.9317 175.124 72.5555 175.124 73.2991C175.124 73.9105 174.922 74.4559 174.517 74.9351C174.121 75.4061 173.617 75.7076 173.005 75.8398L172.98 75.877L175.471 79.4836V79.5332H174.121L171.729 75.939H170.464V79.5332ZM181.67 70.6592V71.7499H177.63V74.5633H181.273V75.6291H177.63V78.4425H181.67V79.5332H176.489V70.6592H181.67ZM188.685 77.166C188.685 77.9427 188.4 78.5665 187.83 79.0375C187.251 79.5002 186.549 79.7315 185.723 79.7315C184.987 79.7315 184.339 79.5167 183.777 79.087C183.215 78.6574 182.827 78.0707 182.612 77.3271L183.702 76.8809C183.777 77.1453 183.88 77.3849 184.012 77.5998C184.144 77.8146 184.297 78.0005 184.471 78.1575C184.653 78.3062 184.851 78.426 185.066 78.5169C185.281 78.5995 185.508 78.6408 185.747 78.6408C186.268 78.6408 186.693 78.5086 187.024 78.2442C187.354 77.9716 187.52 77.6122 187.52 77.166C187.52 76.7942 187.383 76.4761 187.111 76.2117C186.855 75.9555 186.375 75.7076 185.673 75.468C184.962 75.2119 184.52 75.0384 184.347 74.9475C183.405 74.4683 182.934 73.7618 182.934 72.8281C182.934 72.1754 183.194 71.6177 183.715 71.155C184.244 70.6923 184.892 70.4609 185.661 70.4609C186.338 70.4609 186.925 70.6344 187.421 70.9815C187.916 71.3202 188.247 71.7458 188.412 72.258L187.346 72.7042C187.247 72.3737 187.049 72.101 186.751 71.8862C186.462 71.6631 186.107 71.5516 185.685 71.5516C185.239 71.5516 184.863 71.6755 184.558 71.9234C184.252 72.1547 184.099 72.4563 184.099 72.8281C184.099 73.1339 184.219 73.3983 184.458 73.6214C184.723 73.8444 185.297 74.1088 186.181 74.4146C187.082 74.7203 187.722 75.0962 188.102 75.5424C188.491 75.9803 188.685 76.5215 188.685 77.166ZM192.96 71.7499V79.5332H191.82V71.7499H189.341V70.6592H195.439V71.7499H192.96ZM197.77 79.5332H196.629V70.6592H197.77V79.5332ZM200.699 79.5332H199.558V70.6592H200.946L205.259 77.5626H205.309L205.259 75.8522V70.6592H206.4V79.5332H205.21L200.699 72.2952H200.649L200.699 74.0056V79.5332ZM216.606 75.4556C216.606 76.695 216.239 77.6824 215.503 78.4178C214.677 79.2936 213.59 79.7315 212.244 79.7315C210.955 79.7315 209.864 79.2853 208.972 78.393C208.079 77.5006 207.633 76.4017 207.633 75.0962C207.633 73.7907 208.079 72.6918 208.972 71.7995C209.864 70.9071 210.955 70.4609 212.244 70.4609C212.896 70.4609 213.512 70.5766 214.09 70.808C214.669 71.0393 215.144 71.3657 215.516 71.7871L214.698 72.6051C214.425 72.2746 214.07 72.0184 213.632 71.8366C213.202 71.6466 212.739 71.5516 212.244 71.5516C211.277 71.5516 210.459 71.8862 209.79 72.5555C209.129 73.233 208.798 74.0799 208.798 75.0962C208.798 76.1125 209.129 76.9594 209.79 77.6369C210.459 78.3062 211.277 78.6408 212.244 78.6408C213.128 78.6408 213.863 78.393 214.45 77.8972C215.036 77.4015 215.375 76.7198 215.466 75.8522H212.244V74.7864H216.544C216.586 75.0177 216.606 75.2408 216.606 75.4556ZM224.904 70.6592L221.223 79.5332H220.157L223.838 70.6592H224.904ZM65.5405 94.5332H64.4003V85.6592H65.5405V89.4641H69.9775V85.6592H71.1177V94.5332H69.9775V90.53H65.5405V94.5332ZM78.0775 85.6592V86.7499H74.0371V89.5633H77.6808V90.6291H74.0371V93.4425H78.0775V94.5332H72.8968V85.6592H78.0775ZM84.5965 94.5332H79.6142V85.6592H80.7544V93.4425H84.5965V94.5332ZM86.9271 90.939V94.5332H85.7869V85.6592H88.811C89.5794 85.6592 90.2321 85.9154 90.7692 86.4276C91.3145 86.9399 91.5872 87.5637 91.5872 88.2991C91.5872 89.051 91.3145 89.679 90.7692 90.183C90.2404 90.687 89.5877 90.939 88.811 90.939H86.9271ZM86.9271 86.7499V89.8483H88.8358C89.2902 89.8483 89.6662 89.6955 89.9636 89.3898C90.2693 89.0841 90.4222 88.7205 90.4222 88.2991C90.4222 87.886 90.2693 87.5266 89.9636 87.2208C89.6662 86.9069 89.2902 86.7499 88.8358 86.7499H86.9271ZM93.9229 94.5332H92.7826V85.6592H93.9229V94.5332ZM96.8519 94.5332H95.7116V85.6592H97.0997L101.413 92.5626H101.462L101.413 90.8522V85.6592H102.553V94.5332H101.363L96.8519 87.2952H96.8023L96.8519 89.0056V94.5332ZM112.76 90.4556C112.76 91.695 112.392 92.6824 111.657 93.4178C110.83 94.2936 109.744 94.7315 108.397 94.7315C107.108 94.7315 106.017 94.2853 105.125 93.393C104.233 92.5006 103.786 91.4017 103.786 90.0962C103.786 88.7907 104.233 87.6918 105.125 86.7995C106.017 85.9071 107.108 85.4609 108.397 85.4609C109.05 85.4609 109.665 85.5766 110.244 85.808C110.822 86.0393 111.297 86.3657 111.669 86.7871L110.851 87.6051C110.578 87.2746 110.223 87.0184 109.785 86.8366C109.355 86.6466 108.893 86.5516 108.397 86.5516C107.43 86.5516 106.612 86.8862 105.943 87.5555C105.282 88.233 104.952 89.0799 104.952 90.0962C104.952 91.1125 105.282 91.9594 105.943 92.6369C106.612 93.3062 107.43 93.6408 108.397 93.6408C109.281 93.6408 110.016 93.393 110.603 92.8972C111.19 92.4015 111.529 91.7198 111.619 90.8522H108.397V89.7864H112.698C112.739 90.0177 112.76 90.2408 112.76 90.4556ZM116.868 94.5332V85.6592H120.078C120.781 85.6592 121.384 85.8906 121.888 86.3533C122.392 86.8077 122.644 87.382 122.644 88.076C122.644 88.9519 122.243 89.5674 121.442 89.9227V89.9723C121.896 90.121 122.26 90.3813 122.532 90.7531C122.805 91.1166 122.941 91.5339 122.941 92.0049C122.941 92.732 122.677 93.3351 122.148 93.8144C121.636 94.2936 121.004 94.5332 120.252 94.5332H116.868ZM118.009 86.7499V89.4641H120.078C120.483 89.4641 120.822 89.3278 121.095 89.0551C121.367 88.7742 121.504 88.4561 121.504 88.1008C121.504 87.7538 121.371 87.4398 121.107 87.1589C120.843 86.8862 120.516 86.7499 120.128 86.7499H118.009ZM118.009 90.53V93.4425H120.301C120.714 93.4425 121.066 93.298 121.355 93.0088C121.636 92.7196 121.776 92.3767 121.776 91.9801C121.776 91.5917 121.632 91.253 121.342 90.9638C121.053 90.6746 120.69 90.53 120.252 90.53H118.009ZM125.367 86.7499V89.8731H127.202C127.664 89.8731 128.057 89.7244 128.379 89.4269C128.701 89.1212 128.862 88.7453 128.862 88.2991C128.862 87.886 128.71 87.5266 128.404 87.2208C128.106 86.9069 127.73 86.7499 127.276 86.7499H125.367ZM125.367 94.5332H124.227V85.6592H127.251C128.02 85.6592 128.672 85.9154 129.209 86.4276C129.755 86.9317 130.027 87.5555 130.027 88.2991C130.027 88.9105 129.825 89.4559 129.42 89.9351C129.024 90.4061 128.519 90.7076 127.908 90.8398L127.883 90.877L130.374 94.4836V94.5332H129.024L126.631 90.939H125.367V94.5332ZM134.615 87.0597L133.165 91.0629H136.114L134.664 87.0597H134.615ZM131.913 94.5332H130.649L133.995 85.6592H135.284L138.63 94.5332H137.366L136.511 92.1288H132.78L131.913 94.5332ZM140.811 94.5332H139.671V85.6592H141.059L145.372 92.5626H145.422L145.372 90.8522V85.6592H146.512V94.5332H145.323L140.811 87.2952H140.762L140.811 89.0056V94.5332ZM148.301 94.5332V85.6592H151.015C152.37 85.6592 153.456 86.0682 154.274 86.8862C155.101 87.7042 155.514 88.7742 155.514 90.0962C155.514 91.4265 155.101 92.5006 154.274 93.3186C153.456 94.1283 152.37 94.5332 151.015 94.5332H148.301ZM149.441 86.7499V93.4425H151.015C152.048 93.4425 152.862 93.1492 153.456 92.5626C154.051 91.9677 154.349 91.1456 154.349 90.0962C154.349 89.0551 154.051 88.2371 153.456 87.6422C152.862 87.0473 152.048 86.7499 151.015 86.7499H149.441ZM162.348 92.166C162.348 92.9427 162.063 93.5665 161.493 94.0375C160.914 94.5002 160.212 94.7315 159.386 94.7315C158.65 94.7315 158.002 94.5167 157.44 94.087C156.878 93.6574 156.49 93.0707 156.275 92.3271L157.366 91.8809C157.44 92.1453 157.543 92.3849 157.675 92.5998C157.808 92.8146 157.96 93.0005 158.134 93.1575C158.316 93.3062 158.514 93.426 158.729 93.5169C158.944 93.5995 159.171 93.6408 159.411 93.6408C159.931 93.6408 160.357 93.5086 160.687 93.2442C161.018 92.9716 161.183 92.6122 161.183 92.166C161.183 91.7942 161.047 91.4761 160.774 91.2117C160.518 90.9555 160.038 90.7076 159.336 90.468C158.626 90.2119 158.184 90.0384 158.01 89.9475C157.068 89.4683 156.597 88.7618 156.597 87.8281C156.597 87.1754 156.857 86.6177 157.378 86.155C157.907 85.6923 158.555 85.4609 159.324 85.4609C160.001 85.4609 160.588 85.6344 161.084 85.9815C161.579 86.3202 161.91 86.7458 162.075 87.258L161.009 87.7042C160.91 87.3737 160.712 87.101 160.414 86.8862C160.125 86.6631 159.77 86.5516 159.349 86.5516C158.902 86.5516 158.526 86.6755 158.221 86.9234C157.915 87.1547 157.762 87.4563 157.762 87.8281C157.762 88.1339 157.882 88.3983 158.122 88.6214C158.386 88.8444 158.96 89.1088 159.844 89.4146C160.745 89.7203 161.385 90.0962 161.765 90.5424C162.154 90.9803 162.348 91.5215 162.348 92.166ZM171.546 92.166C171.546 92.9427 171.261 93.5665 170.691 94.0375C170.113 94.5002 169.411 94.7315 168.584 94.7315C167.849 94.7315 167.2 94.5167 166.638 94.087C166.077 93.6574 165.688 93.0707 165.473 92.3271L166.564 91.8809C166.638 92.1453 166.742 92.3849 166.874 92.5998C167.006 92.8146 167.159 93.0005 167.333 93.1575C167.514 93.3062 167.713 93.426 167.927 93.5169C168.142 93.5995 168.369 93.6408 168.609 93.6408C169.13 93.6408 169.555 93.5086 169.886 93.2442C170.216 92.9716 170.381 92.6122 170.381 92.166C170.381 91.7942 170.245 91.4761 169.972 91.2117C169.716 90.9555 169.237 90.7076 168.535 90.468C167.824 90.2119 167.382 90.0384 167.209 89.9475C166.267 89.4683 165.796 88.7618 165.796 87.8281C165.796 87.1754 166.056 86.6177 166.576 86.155C167.105 85.6923 167.754 85.4609 168.522 85.4609C169.2 85.4609 169.786 85.6344 170.282 85.9815C170.778 86.3202 171.108 86.7458 171.274 87.258L170.208 87.7042C170.109 87.3737 169.91 87.101 169.613 86.8862C169.324 86.6631 168.968 86.5516 168.547 86.5516C168.101 86.5516 167.725 86.6755 167.419 86.9234C167.114 87.1547 166.961 87.4563 166.961 87.8281C166.961 88.1339 167.081 88.3983 167.32 88.6214C167.585 88.8444 168.159 89.1088 169.043 89.4146C169.943 89.7203 170.584 90.0962 170.964 90.5424C171.352 90.9803 171.546 91.5215 171.546 92.166ZM175.822 86.7499V94.5332H174.682V86.7499H172.203V85.6592H178.301V86.7499H175.822ZM181.902 87.0597L180.452 91.0629H183.402L181.952 87.0597H181.902ZM179.201 94.5332H177.936L181.283 85.6592H182.572L185.918 94.5332H184.654L183.799 92.1288H180.068L179.201 94.5332ZM188.099 94.5332H186.959V85.6592H188.347L192.66 92.5626H192.709L192.66 90.8522V85.6592H193.8V94.5332H192.61L188.099 87.2952H188.049L188.099 89.0056V94.5332ZM195.588 94.5332V85.6592H198.303C199.658 85.6592 200.744 86.0682 201.562 86.8862C202.388 87.7042 202.802 88.7742 202.802 90.0962C202.802 91.4265 202.388 92.5006 201.562 93.3186C200.744 94.1283 199.658 94.5332 198.303 94.5332H195.588ZM196.729 86.7499V93.4425H198.303C199.335 93.4425 200.149 93.1492 200.744 92.5626C201.339 91.9677 201.637 91.1456 201.637 90.0962C201.637 89.0551 201.339 88.2371 200.744 87.6422C200.149 87.0473 199.335 86.7499 198.303 86.7499H196.729ZM215.327 90.0962C215.327 91.41 214.889 92.5089 214.013 93.393C213.129 94.2853 212.047 94.7315 210.766 94.7315C209.477 94.7315 208.395 94.2853 207.519 93.393C206.643 92.5089 206.205 91.41 206.205 90.0962C206.205 88.7825 206.643 87.6836 207.519 86.7995C208.395 85.9071 209.477 85.4609 210.766 85.4609C212.055 85.4609 213.137 85.9112 214.013 86.8119C214.889 87.6959 215.327 88.7907 215.327 90.0962ZM207.37 90.0962C207.37 91.1208 207.692 91.9677 208.337 92.6369C208.989 93.3062 209.799 93.6408 210.766 93.6408C211.733 93.6408 212.538 93.3062 213.183 92.6369C213.835 91.9759 214.162 91.129 214.162 90.0962C214.162 89.0634 213.835 88.2165 213.183 87.5555C212.538 86.8862 211.733 86.5516 210.766 86.5516C209.799 86.5516 208.989 86.8862 208.337 87.5555C207.692 88.2247 207.37 89.0717 207.37 90.0962ZM219.758 94.7315C218.775 94.7315 217.982 94.4093 217.379 93.7648C216.776 93.1286 216.474 92.2858 216.474 91.2364V85.6592H217.614V91.286C217.614 92.0131 217.804 92.5874 218.184 93.0088C218.565 93.4302 219.089 93.6408 219.758 93.6408C220.428 93.6408 220.952 93.4302 221.332 93.0088C221.713 92.5874 221.903 92.0131 221.903 91.286V85.6592H223.043V91.2364C223.043 92.3106 222.745 93.1616 222.15 93.7896C221.556 94.4175 220.758 94.7315 219.758 94.7315ZM227.648 86.7499V94.5332H226.508V86.7499H224.029V85.6592H230.127V86.7499H227.648Z" fill="black"/>
</svg>
