<svg width="1827" height="361" viewBox="0 0 1827 361" fill="none" xmlns="http://www.w3.org/2000/svg">
<g clip-path="url(#clipT)">
<path fill-rule="evenodd" clip-rule="evenodd" d="M1827 0H0V721H1827V0ZM1667.97 101.49L1669.68 109.51L1670.59 117.75L1670.67 126.19L1669.95 134.82L1668.40 143.64L1666.05 152.63L1662.89 161.79L1658.91 171.11L1654.14 180.58L1648.56 190.18L1642.20 199.92L1635.04 209.78L1627.11 219.75L1618.41 229.81L1608.94 239.97L1598.72 250.22L1587.75 260.53L1576.05 270.90L1563.63 281.32L1550.50 291.79L1536.68 302.28L1522.17 312.79L1506.99 323.31L1491.16 333.83L1474.69 344.34L1457.60 354.83L1439.91 365.28L1421.63 375.69L1402.78 386.05L1383.38 396.34L1363.45 406.57L1343.00 416.70L1322.07 426.75L1300.66 436.69L1278.81 446.52L1256.53 456.22L1233.84 465.80L1210.76 475.23L1187.33 484.51L1163.56 493.63L1139.47 502.58L1115.09 511.35L1090.45 519.93L1065.56 528.32L1040.46 536.51L1015.16 544.48L989.70 552.24L964.09 559.76L938.37 567.06L912.55 574.11L886.67 580.91L860.74 587.46L834.80 593.74L808.87 599.76L782.98 605.50L757.15 610.96L731.40 616.14L705.77 621.03L680.27 625.62L654.93 629.91L629.79 633.90L604.85 637.58L580.16 640.95L555.72 644.00L531.57 646.74L507.73 649.16L484.22 651.25L461.07 653.02L438.29 654.46L415.92 655.57L393.97 656.36L372.47 656.81L351.43 656.94L330.88 656.73L310.84 656.19L291.32 655.33L272.35 654.13L253.95 652.61L236.13 650.76L218.91 648.58L202.31 646.09L186.34 643.27L171.02 640.14L156.37 636.69L142.40 632.93L129.12 628.87L116.54 624.50L104.69 619.84L93.57 614.88L83.18 609.63L73.55 604.09L64.69 598.28L56.59 592.20L49.27 585.85L42.73 579.24L36.99 572.37L32.04 565.26L27.90 557.91L24.56 550.32L22.03 542.51L20.32 534.49L19.41 526.25L19.33 517.81L20.05 509.18L21.60 500.36L23.95 491.37L27.11 482.21L31.09 472.89L35.86 463.42L41.44 453.82L47.80 444.08L54.96 434.22L62.89 424.25L71.59 414.19L81.06 404.03L91.28 393.78L102.25 383.47L113.95 373.10L126.37 362.68L139.50 352.21L153.32 341.72L167.83 331.21L183.01 320.69L198.84 310.17L215.31 299.66L232.40 289.17L250.09 278.72L268.37 268.31L287.22 257.95L306.62 247.66L326.55 237.43L347.00 227.30L367.93 217.25L389.34 207.31L411.19 197.48L433.47 187.78L456.16 178.20L479.24 168.77L502.67 159.49L526.44 150.37L550.53 141.42L574.91 132.65L599.55 124.07L624.44 115.68L649.54 107.49L674.84 99.52L700.30 91.76L725.91 84.24L751.63 76.94L777.45 69.89L803.33 63.09L829.26 56.54L855.20 50.26L881.13 44.24L907.02 38.50L932.85 33.04L958.60 27.86L984.23 22.97L1009.73 18.38L1035.07 14.09L1060.21 10.10L1085.15 6.42L1109.84 3.05L1134.28 -0.00L1158.43 -2.74L1182.27 -5.16L1205.78 -7.25L1228.93 -9.02L1251.71 -10.46L1274.08 -11.57L1296.03 -12.36L1317.53 -12.81L1338.57 -12.94L1359.12 -12.73L1379.16 -12.19L1398.68 -11.33L1417.65 -10.13L1436.05 -8.61L1453.87 -6.76L1471.09 -4.58L1487.69 -2.09L1503.66 0.73L1518.98 3.86L1533.63 7.31L1547.60 11.07L1560.88 15.13L1573.46 19.50L1585.31 24.16L1596.43 29.12L1606.82 34.37L1616.45 39.91L1625.31 45.72L1633.41 51.80L1640.73 58.15L1647.27 64.76L1653.01 71.63L1657.96 78.74L1662.10 86.09L1665.44 93.68Z" fill="#f9f9f9"/>
</g>
<defs><clipPath id="clipT"><rect width="1827" height="360.5" fill="white"/></clipPath></defs>
</svg>
