<svg width="1827" height="361" viewBox="0 0 1827 361" fill="none" xmlns="http://www.w3.org/2000/svg">
<g clip-path="url(#clipB)">
<path fill-rule="evenodd" clip-rule="evenodd" d="M1827 -360H0V361H1827V-360ZM1667.97 -258.51L1669.68 -250.49L1670.59 -242.25L1670.67 -233.81L1669.95 -225.18L1668.40 -216.36L1666.05 -207.37L1662.89 -198.21L1658.91 -188.89L1654.14 -179.42L1648.56 -169.82L1642.20 -160.08L1635.04 -150.22L1627.11 -140.25L1618.41 -130.19L1608.94 -120.03L1598.72 -109.78L1587.75 -99.47L1576.05 -89.10L1563.63 -78.68L1550.50 -68.21L1536.68 -57.72L1522.17 -47.21L1506.99 -36.69L1491.16 -26.17L1474.69 -15.66L1457.60 -5.17L1439.91 5.28L1421.63 15.69L1402.78 26.05L1383.38 36.34L1363.45 46.57L1343.00 56.70L1322.07 66.75L1300.66 76.69L1278.81 86.52L1256.53 96.22L1233.84 105.80L1210.76 115.23L1187.33 124.51L1163.56 133.63L1139.47 142.58L1115.09 151.35L1090.45 159.93L1065.56 168.32L1040.46 176.51L1015.16 184.48L989.70 192.24L964.09 199.76L938.37 207.06L912.55 214.11L886.67 220.91L860.74 227.46L834.80 233.74L808.87 239.76L782.98 245.50L757.15 250.96L731.40 256.14L705.77 261.03L680.27 265.62L654.93 269.91L629.79 273.90L604.85 277.58L580.16 280.95L555.72 284.00L531.57 286.74L507.73 289.16L484.22 291.25L461.07 293.02L438.29 294.46L415.92 295.57L393.97 296.36L372.47 296.81L351.43 296.94L330.88 296.73L310.84 296.19L291.32 295.33L272.35 294.13L253.95 292.61L236.13 290.76L218.91 288.58L202.31 286.09L186.34 283.27L171.02 280.14L156.37 276.69L142.40 272.93L129.12 268.87L116.54 264.50L104.69 259.84L93.57 254.88L83.18 249.63L73.55 244.09L64.69 238.28L56.59 232.20L49.27 225.85L42.73 219.24L36.99 212.37L32.04 205.26L27.90 197.91L24.56 190.32L22.03 182.51L20.32 174.49L19.41 166.25L19.33 157.81L20.05 149.18L21.60 140.36L23.95 131.37L27.11 122.21L31.09 112.89L35.86 103.42L41.44 93.82L47.80 84.08L54.96 74.22L62.89 64.25L71.59 54.19L81.06 44.03L91.28 33.78L102.25 23.47L113.95 13.10L126.37 2.68L139.50 -7.79L153.32 -18.28L167.83 -28.79L183.01 -39.31L198.84 -49.83L215.31 -60.34L232.40 -70.83L250.09 -81.28L268.37 -91.69L287.22 -102.05L306.62 -112.34L326.55 -122.57L347.00 -132.70L367.93 -142.75L389.34 -152.69L411.19 -162.52L433.47 -172.22L456.16 -181.80L479.24 -191.23L502.67 -200.51L526.44 -209.63L550.53 -218.58L574.91 -227.35L599.55 -235.93L624.44 -244.32L649.54 -252.51L674.84 -260.48L700.30 -268.24L725.91 -275.76L751.63 -283.06L777.45 -290.11L803.33 -296.91L829.26 -303.46L855.20 -309.74L881.13 -315.76L907.02 -321.50L932.85 -326.96L958.60 -332.14L984.23 -337.03L1009.73 -341.62L1035.07 -345.91L1060.21 -349.90L1085.15 -353.58L1109.84 -356.95L1134.28 -360.00L1158.43 -362.74L1182.27 -365.16L1205.78 -367.25L1228.93 -369.02L1251.71 -370.46L1274.08 -371.57L1296.03 -372.36L1317.53 -372.81L1338.57 -372.94L1359.12 -372.73L1379.16 -372.19L1398.68 -371.33L1417.65 -370.13L1436.05 -368.61L1453.87 -366.76L1471.09 -364.58L1487.69 -362.09L1503.66 -359.27L1518.98 -356.14L1533.63 -352.69L1547.60 -348.93L1560.88 -344.87L1573.46 -340.50L1585.31 -335.84L1596.43 -330.88L1606.82 -325.63L1616.45 -320.09L1625.31 -314.28L1633.41 -308.20L1640.73 -301.85L1647.27 -295.24L1653.01 -288.37L1657.96 -281.26L1662.10 -273.91L1665.44 -266.32Z" fill="#f9f9f9"/>
</g>
<defs><clipPath id="clipB"><rect width="1827" height="360.5" fill="white"/></clipPath></defs>
</svg>
