<svg width="40" height="40" viewBox="0 0 40 40" fill="none" xmlns="http://www.w3.org/2000/svg">
<g opacity="0.2">
<ellipse cx="20" cy="20" rx="20" ry="20" fill="#898989" fill-opacity="0.42"/>
<path d="M39.6044 20C39.6044 30.8272 30.8272 39.6044 20 39.6044C9.17277 39.6044 0.395569 30.8272 0.39557 20C0.395571 9.17277 9.17277 0.395572 20 0.395572C30.8272 0.395573 39.6044 9.17277 39.6044 20Z" stroke="#898989" stroke-opacity="0.42" stroke-width="0.791142"/>
</g>
<path d="M22.6533 14.4336L20.88 21.3053L19.2017 14.4336H16.9137L15.2354 21.3053L13.4621 14.4336H11L14.1746 24.4482H16.3438L18.0617 17.9723L19.7717 24.4482H21.9408L25.1154 14.4336H22.6533ZM26.6908 22.9044C26.6908 23.8544 27.4033 24.5669 28.3454 24.5669C29.2954 24.5669 30 23.8544 30 22.9044C30 21.9544 29.2875 21.2261 28.3375 21.2261C27.3954 21.2261 26.6908 21.9386 26.6908 22.8965" fill="#280822"/>
</svg>
