<svg width="40" height="40" viewBox="0 0 40 40" fill="none" xmlns="http://www.w3.org/2000/svg">
<g opacity="0.2">
<ellipse cx="20" cy="20" rx="20" ry="20" fill="#898989" fill-opacity="0.42"/>
<path d="M39.6044 20C39.6044 30.8272 30.8272 39.6044 20 39.6044C9.17277 39.6044 0.395569 30.8272 0.39557 20C0.395571 9.17277 9.17277 0.395572 20 0.395572C30.8272 0.395573 39.6044 9.17277 39.6044 20Z" stroke="#898989" stroke-opacity="0.42" stroke-width="0.791142"/>
</g>
<path d="M26.725 15.2917H22.5V16.4667H26.7416L26.725 15.2917ZM25.8333 23.375C25.5128 23.5874 25.1343 23.6951 24.75 23.6833C24.4956 23.7098 24.2384 23.6836 23.9947 23.6061C23.7509 23.5287 23.5257 23.4018 23.3333 23.2333C22.9782 22.8294 22.7931 22.3039 22.8166 21.7667H28.3333C28.3727 21.2071 28.3249 20.6449 28.1916 20.1C28.062 19.5818 27.8358 19.0927 27.525 18.6583C27.2111 18.2378 26.8067 17.8931 26.3416 17.65C25.8233 17.3955 25.2523 17.267 24.675 17.275C24.1319 17.2715 23.5937 17.3763 23.0916 17.5833C22.6319 17.7769 22.2155 18.0602 21.8666 18.4167C21.5186 18.7801 21.2491 19.2113 21.075 19.6833C20.888 20.193 20.7949 20.7322 20.8 21.275C20.791 21.8255 20.8814 22.3732 21.0666 22.8917C21.2245 23.3609 21.4737 23.7942 21.8 24.1667C22.1382 24.5318 22.5539 24.8165 23.0166 25C23.5325 25.1966 24.0813 25.2927 24.6333 25.2833C25.4078 25.3075 26.1725 25.1047 26.8333 24.7C27.5012 24.2262 27.9819 23.5332 28.1916 22.7417H26.35C26.2514 23.0034 26.0699 23.2258 25.8333 23.375ZM22.975 19.9417C23.0398 19.7339 23.1475 19.542 23.291 19.3784C23.4345 19.2148 23.6107 19.083 23.8083 18.9917C24.0701 18.8744 24.3549 18.8175 24.6416 18.825C24.8488 18.8073 25.0574 18.8346 25.253 18.9051C25.4486 18.9756 25.6267 19.0876 25.775 19.2333C26.0585 19.5797 26.2402 19.998 26.3 20.4417H22.8416C22.8551 20.2723 22.8858 20.1048 22.9333 19.9417H22.975ZM18.5666 19.5417C18.9908 19.365 19.3593 19.0771 19.6333 18.7083C19.8862 18.3171 20.0114 17.8571 19.9916 17.3917C20.0074 16.9674 19.9246 16.5453 19.75 16.1583C19.6027 15.8233 19.3664 15.535 19.0666 15.325C18.7493 15.1057 18.3883 14.9579 18.0083 14.8917C17.559 14.7972 17.1007 14.7524 16.6416 14.7583H11.6666V25.2417H16.75C17.2138 25.2415 17.6758 25.1827 18.125 25.0667C18.5503 24.9558 18.9534 24.7725 19.3166 24.525C19.6688 24.2822 19.9551 23.9558 20.15 23.575C20.3669 23.1499 20.4729 22.677 20.4583 22.2C20.4741 21.6089 20.3083 21.0273 19.9833 20.5333C19.6338 20.0366 19.1154 19.6841 18.525 19.5417H18.5666ZM13.975 16.55H16.1333C16.3316 16.549 16.5296 16.5658 16.725 16.6C16.9051 16.6258 17.0781 16.6882 17.2333 16.7833C17.3836 16.8683 17.5054 16.9959 17.5833 17.15C17.6806 17.3345 17.7266 17.5417 17.7166 17.75C17.7322 17.9294 17.7047 18.1098 17.6366 18.2765C17.5685 18.4431 17.4617 18.5912 17.325 18.7083C17.0267 18.9134 16.6699 19.0157 16.3083 19H13.975V16.55ZM18.0083 22.75C17.922 22.9194 17.7927 23.0631 17.6333 23.1667C17.4669 23.2702 17.2835 23.3435 17.0916 23.3833C16.8784 23.4313 16.6602 23.4537 16.4416 23.45H13.9416V20.575H16.4416C16.8706 20.5562 17.2943 20.676 17.65 20.9167C17.8106 21.0609 17.9351 21.2409 18.0133 21.4421C18.0915 21.6433 18.1212 21.8601 18.1 22.075C18.1216 22.304 18.0902 22.535 18.0083 22.75Z" fill="#280822"/>
</svg>
