<svg width="342" height="19" viewBox="0 0 342 19" fill="none" xmlns="http://www.w3.org/2000/svg">
<path d="M0.603149 0V18.0952" stroke="#724314" stroke-width="1.20635" stroke-linejoin="round"/>
<path d="M38.3016 0V18.0952" stroke="#724314" stroke-width="1.20635" stroke-linejoin="round"/>
<path d="M76 0V18.0952" stroke="#724314" stroke-width="1.20635" stroke-linejoin="round"/>
<path d="M113.698 0V18.0952" stroke="#724314" stroke-width="1.20635" stroke-linejoin="round"/>
<path d="M151.397 0V18.0952" stroke="#724314" stroke-width="1.20635" stroke-linejoin="round"/>
<path d="M8.14282 9.04688V18.0945" stroke="#724314" stroke-width="1.20635" stroke-linejoin="round"/>
<path d="M45.8413 9.04688V18.0945" stroke="#724314" stroke-width="1.20635" stroke-linejoin="round"/>
<path d="M83.5397 9.04688V18.0945" stroke="#724314" stroke-width="1.20635" stroke-linejoin="round"/>
<path d="M121.238 9.04688V18.0945" stroke="#724314" stroke-width="1.20635" stroke-linejoin="round"/>
<path d="M15.6825 9.04688V18.0945" stroke="#724314" stroke-width="1.20635" stroke-linejoin="round"/>
<path d="M53.381 9.04688V18.0945" stroke="#724314" stroke-width="1.20635" stroke-linejoin="round"/>
<path d="M91.0793 9.04688V18.0945" stroke="#724314" stroke-width="1.20635" stroke-linejoin="round"/>
<path d="M128.778 9.04688V18.0945" stroke="#724314" stroke-width="1.20635" stroke-linejoin="round"/>
<path d="M23.2222 9.04688V18.0945" stroke="#724314" stroke-width="1.20635" stroke-linejoin="round"/>
<path d="M60.9207 9.04688V18.0945" stroke="#724314" stroke-width="1.20635" stroke-linejoin="round"/>
<path d="M98.619 9.04688V18.0945" stroke="#724314" stroke-width="1.20635" stroke-linejoin="round"/>
<path d="M136.318 9.04688V18.0945" stroke="#724314" stroke-width="1.20635" stroke-linejoin="round"/>
<path d="M30.762 9.04688V18.0945" stroke="#724314" stroke-width="1.20635" stroke-linejoin="round"/>
<path d="M68.4603 9.04688V18.0945" stroke="#724314" stroke-width="1.20635" stroke-linejoin="round"/>
<path d="M106.159 9.04688V18.0945" stroke="#724314" stroke-width="1.20635" stroke-linejoin="round"/>
<path d="M143.857 9.04688V18.0945" stroke="#724314" stroke-width="1.20635" stroke-linejoin="round"/>
<path d="M159.238 9.04688V18.0945" stroke="#724314" stroke-width="1.20635" stroke-linejoin="round"/>
<path d="M167.079 9.04688V18.0945" stroke="#724314" stroke-width="1.20635" stroke-linejoin="round"/>
<path d="M174.921 9.04688V18.0945" stroke="#724314" stroke-width="1.20635" stroke-linejoin="round"/>
<path d="M182.762 9.04688V18.0945" stroke="#724314" stroke-width="1.20635" stroke-linejoin="round"/>
<path d="M190.603 0V18.0952" stroke="#724314" stroke-width="1.20635" stroke-linejoin="round"/>
<path d="M228.302 0V18.0952" stroke="#724314" stroke-width="1.20635" stroke-linejoin="round"/>
<path d="M266 0V18.0952" stroke="#724314" stroke-width="1.20635" stroke-linejoin="round"/>
<path d="M303.698 0V18.0952" stroke="#724314" stroke-width="1.20635" stroke-linejoin="round"/>
<path d="M341.397 0V18.0952" stroke="#724314" stroke-width="1.20635" stroke-linejoin="round"/>
<path d="M198.143 9.04688V18.0945" stroke="#724314" stroke-width="1.20635" stroke-linejoin="round"/>
<path d="M235.841 9.04688V18.0945" stroke="#724314" stroke-width="1.20635" stroke-linejoin="round"/>
<path d="M273.54 9.04688V18.0945" stroke="#724314" stroke-width="1.20635" stroke-linejoin="round"/>
<path d="M311.238 9.04688V18.0945" stroke="#724314" stroke-width="1.20635" stroke-linejoin="round"/>
<path d="M205.682 9.04688V18.0945" stroke="#724314" stroke-width="1.20635" stroke-linejoin="round"/>
<path d="M243.381 9.04688V18.0945" stroke="#724314" stroke-width="1.20635" stroke-linejoin="round"/>
<path d="M281.079 9.04688V18.0945" stroke="#724314" stroke-width="1.20635" stroke-linejoin="round"/>
<path d="M318.778 9.04688V18.0945" stroke="#724314" stroke-width="1.20635" stroke-linejoin="round"/>
<path d="M213.222 9.04688V18.0945" stroke="#724314" stroke-width="1.20635" stroke-linejoin="round"/>
<path d="M250.921 9.04688V18.0945" stroke="#724314" stroke-width="1.20635" stroke-linejoin="round"/>
<path d="M288.619 9.04688V18.0945" stroke="#724314" stroke-width="1.20635" stroke-linejoin="round"/>
<path d="M326.318 9.04688V18.0945" stroke="#724314" stroke-width="1.20635" stroke-linejoin="round"/>
<path d="M220.762 9.04688V18.0945" stroke="#724314" stroke-width="1.20635" stroke-linejoin="round"/>
<path d="M258.46 9.04688V18.0945" stroke="#724314" stroke-width="1.20635" stroke-linejoin="round"/>
<path d="M296.159 9.04688V18.0945" stroke="#724314" stroke-width="1.20635" stroke-linejoin="round"/>
<path d="M333.857 9.04688V18.0945" stroke="#724314" stroke-width="1.20635" stroke-linejoin="round"/>
</svg>
