<svg width="89" height="89" viewBox="0 0 89 89" fill="none" xmlns="http://www.w3.org/2000/svg">
<path d="M22.25 44.5C22.25 56.7883 32.2117 66.75 44.5 66.75C56.7883 66.75 66.75 56.7883 66.75 44.5C66.75 32.2117 56.7883 22.25 44.5 22.25C32.2117 22.25 22.25 32.2117 22.25 44.5ZM22.25 44.5C22.25 32.2117 12.2883 22.25 4.18285e-06 22.25M22.25 44.5C22.25 56.7883 12.2883 66.75 0 66.75M89 66.75C76.7117 66.75 66.75 56.7883 66.75 44.5C66.75 32.2117 76.7117 22.25 89 22.25" stroke="black" stroke-width="0.712" stroke-linejoin="round"/>
<path d="M0 44.5449L89 44.5449" stroke="black" stroke-width="0.712" stroke-linejoin="round" stroke-dasharray="7.12 7.12"/>
</svg>
